# Blender v2.76 (sub 0) OBJ File: ''
# www.blender.org
mtllib 1.mtl
o Mesh2_Group_116_1_Component_1_1_quadro_grunge1_Model
v -2.066930 -0.940781 0.016405
v -2.050525 -0.924376 0.016405
v -2.066930 0.940781 0.016405
v 2.066930 -0.940780 0.016405
v -2.066930 -0.940781 -0.016405
v 2.066930 -0.940780 -0.016405
v -2.050525 -0.924376 -0.016405
v -2.050525 0.924375 -0.016405
v -2.066930 0.940781 -0.016405
v 2.066930 0.940781 -0.016404
v 2.066930 0.940781 0.016406
v -2.050525 0.924375 0.016405
v 2.050525 -0.924376 -0.016405
v 2.050525 -0.924376 0.016405
v 2.050525 0.924375 0.016406
v 2.050525 0.924375 -0.016404
v 2.050525 -0.924681 0.008202
v 2.050525 0.924682 -0.008202
v 2.050525 0.924682 0.008203
v 2.050525 -0.924681 -0.008203
v -2.050525 -0.924682 -0.008203
v -2.050525 -0.924682 0.008202
v -2.050525 0.924681 0.008203
v -2.050525 0.924681 -0.008202
vt 0.393701 0.393701
vt 0.787402 0.787402
vt 0.393701 45.551201
vt 99.606300 0.393701
vt 0.000000 0.393701
vt -0.787402 99.606300
vt -0.787402 0.393701
vt 0.000000 99.606300
vt -0.393701 0.393701
vt -0.787402 0.787402
vt -99.606300 0.393701
vt -0.787402 45.157501
vt -0.393701 45.551201
vt -99.606300 45.551201
vt 0.787402 0.393701
vt 0.787402 99.606300
vt 0.787402 45.157501
vt 99.606300 45.551201
vt 0.000000 45.157501
vt 0.000000 0.787402
vt 0.000000 99.212601
vt 0.787402 99.212601
vt 99.212601 0.787402
vt 99.212601 45.157501
vt -0.787402 99.212601
vt -99.212601 45.157501
vt -99.212601 0.787402
vt 0.000000 45.551201
vt -0.787402 45.551201
vt 0.787402 45.551201
vt -0.393701 0.000000
vt 0.000000 44.384800
vt -0.393701 44.384800
vt 0.000000 0.000000
vt -0.393701 98.425201
vt 0.000000 98.425201
vt 0.393701 44.384800
vt 0.393701 0.000000
vt 0.393701 98.425201
vt -98.425201 44.384800
vt -98.425201 0.000000
vt 2.343750 0.000000
vt 0.000000 0.939478
vt 2.343750 0.939478
vn -0.000000 -0.000000 1.000000
vn 0.000000 -1.000000 0.000000
vn 0.000000 0.000000 -1.000000
vn 0.000000 1.000000 0.000000
vn 1.000000 0.000000 0.000000
vn -1.000000 0.000000 0.000000
usemtl _Black_
s 1
f 1/1/1 2/2/1 3/3/1
f 2/2/1 1/1/1 4/4/1
f 5/5/2 4/6/2 1/7/2
f 4/6/2 5/5/2 6/8/2
f 5/9/3 7/10/3 6/11/3
f 7/10/3 5/9/3 8/12/3
f 9/13/3 8/12/3 5/9/3
f 8/12/3 9/13/3 10/14/3
f 3/15/4 10/8/4 9/5/4
f 10/8/4 3/15/4 11/16/4
f 3/3/1 12/17/1 11/18/1
f 12/17/1 3/3/1 2/2/1
f 2/10/5 8/19/5 12/12/5
f 8/19/5 2/10/5 7/20/5
f 2/2/4 13/21/4 7/20/4
f 13/21/4 2/2/4 14/22/4
f 2/2/1 4/4/1 14/23/1
f 14/23/1 4/4/1 15/24/1
f 11/18/1 15/24/1 4/4/1
f 11/18/1 12/17/1 15/24/1
f 8/20/2 15/25/2 12/10/2
f 15/25/2 8/20/2 16/21/2
f 8/12/3 10/14/3 16/26/3
f 16/26/3 10/14/3 13/27/3
f 6/11/3 13/27/3 10/14/3
f 6/11/3 7/10/3 13/27/3
f 13/23/1 8/17/1 7/2/1
f 8/17/1 13/23/1 16/24/1
f 13/20/6 15/17/6 16/19/6
f 15/17/6 13/20/6 14/2/6
f 10/28/5 4/7/5 6/5/5
f 4/7/5 10/28/5 11/29/5
f 5/5/6 3/30/6 9/28/6
f 3/30/6 5/5/6 1/15/6
usemtl FrontColor
f 17/31/5 18/32/5 19/33/5
f 18/32/5 17/31/5 20/34/5
f 17/35/2 21/34/2 20/36/2
f 21/34/2 17/35/2 22/31/2
f 23/37/6 21/34/6 22/38/6
f 21/34/6 23/37/6 24/32/6
f 23/38/4 18/36/4 24/34/4
f 18/36/4 23/38/4 19/39/4
f 18/40/3 21/34/3 24/32/3
f 21/34/3 18/40/3 20/41/3
usemtl _2
f 17/42/1 23/43/1 22/34/1
f 23/43/1 17/42/1 19/44/1
