# Blender v2.76 (sub 0) OBJ File: ''
# www.blender.org
mtllib 3.mtl
o Mesh5_Group7_Group3_Group1_Model
v 5.925569 -4.603376 3.943175
v -5.741081 -4.603376 3.891092
v 5.925569 -4.603376 3.891092
v -5.741081 -4.603376 3.943175
v -5.741081 -4.404101 3.943175
v 5.925569 -4.404101 3.943175
v 5.925569 -4.404101 3.891092
v 5.925569 -2.012796 3.734842
v 5.925569 -5.001926 3.891092
v 5.925569 -5.991652 3.917133
v 5.925569 -6.596131 3.917133
v 5.925569 -6.596131 3.734841
v -5.741081 -6.596131 3.734841
v -5.741081 -6.596131 3.917133
v -5.741081 -5.991652 3.917133
v 5.925569 -5.991652 3.943175
v -5.741081 -5.991652 3.943175
v -5.741081 -5.001926 3.943175
v 5.925569 -5.001926 3.943175
v -5.741081 -5.001926 3.891092
v -5.741081 -2.012796 3.734842
v -5.741081 -2.012796 3.839009
v 5.925569 -2.012796 3.839009
v 5.925569 -2.809901 3.839009
v -5.741081 -2.809901 3.839009
v -5.741081 -4.404101 3.891092
v -5.741081 -2.809901 3.891092
v 5.925569 -2.809901 3.891092
vt -0.005748 0.747641
vt -0.003832 0.000000
vt -0.003832 0.747641
vt -0.005748 0.000000
vt 0.429201 0.130605
vt 0.000000 0.143665
vt 0.000000 0.130605
vt 0.429201 0.143665
vt -0.005748 0.143665
vt -0.005748 0.130605
vt -0.003832 0.143665
vt -0.003832 0.130605
vt 0.001916 0.300391
vt -0.003832 0.104484
vt -0.004790 0.039618
vt -0.004790 0.000000
vt 0.001916 0.000000
vt -0.004790 0.747641
vt 0.001916 0.747641
vt 0.429201 0.000000
vt 0.000000 0.039618
vt 0.000000 0.000000
vt 0.429201 0.039618
vt 0.000000 0.104484
vt 0.429201 0.104484
vt -0.005748 0.104484
vt -0.005748 0.039618
vt 0.003832 0.747641
vt 0.005748 0.000000
vt 0.005748 0.747641
vt 0.003832 0.000000
vt -0.001916 0.300391
vt 0.003832 0.104484
vt 0.003832 0.130605
vt 0.004790 0.039618
vt -0.001916 0.000000
vt 0.004790 0.000000
vt -0.429201 0.300391
vt 0.000000 0.300391
vt -0.429201 0.000000
vt -0.001916 0.747641
vt 0.429201 0.248149
vt 0.429201 0.300391
vt 0.000000 0.248149
vt 0.001916 0.248149
vt 0.003832 0.143665
vt 0.005748 0.143665
vt 0.005748 0.130605
vt -0.003832 0.248149
vt -0.001916 0.248149
vt 0.003832 0.248149
vt 0.005748 0.104484
vt 0.005748 0.039618
vn 0.000000 -1.000000 0.000000
vn 0.000000 0.000000 1.000000
vn 1.000000 0.000000 0.000000
vn 0.000000 1.000000 0.000000
vn -1.000000 0.000000 0.000000
vn 0.000000 0.000000 -1.000000
usemtl dekore263_links_gross_h806_st9_xld
s 1
f 1/1/1 2/2/1 3/3/1
f 2/2/1 1/1/1 4/4/1
f 1/5/2 5/6/2 4/7/2
f 5/6/2 1/5/2 6/8/2
f 6/9/3 1/10/3 7/11/3
f 3/12/3 7/11/3 1/10/3
f 3/12/3 8/13/3 7/11/3
f 9/14/3 8/13/3 3/12/3
f 10/15/3 8/13/3 9/14/3
f 11/16/3 8/13/3 10/15/3
f 8/13/3 11/16/3 12/17/3
f 11/18/1 13/17/1 12/19/1
f 13/17/1 11/18/1 14/16/1
f 11/20/2 15/21/2 14/22/2
f 15/21/2 11/20/2 10/23/2
f 16/1/1 15/16/1 10/18/1
f 15/16/1 16/1/1 17/4/1
f 16/23/2 18/24/2 17/21/2
f 18/24/2 16/23/2 19/25/2
f 19/26/3 16/27/3 9/14/3
f 10/15/3 9/14/3 16/27/3
f 9/28/4 18/29/4 19/30/4
f 18/29/4 9/28/4 20/31/4
f 9/25/2 2/7/2 20/24/2
f 2/7/2 9/25/2 3/5/2
f 21/32/5 20/33/5 2/34/5
f 21/32/5 15/35/5 20/33/5
f 13/36/5 15/35/5 21/32/5
f 15/35/5 13/36/5 14/37/5
f 8/38/6 13/22/6 21/39/6
f 13/22/6 8/38/6 12/40/6
f 22/17/4 8/41/4 21/36/4
f 8/41/4 22/17/4 23/19/4
f 22/39/2 24/42/2 23/43/2
f 24/42/2 22/39/2 25/44/2
f 21/32/5 25/45/5 22/13/5
f 21/32/5 26/46/5 25/45/5
f 21/32/5 2/34/5 26/46/5
f 26/46/5 2/34/5 5/47/5
f 5/47/5 2/34/5 4/48/5
f 5/29/4 7/28/4 26/31/4
f 7/28/4 5/29/4 6/30/4
f 7/8/2 27/44/2 26/6/2
f 27/44/2 7/8/2 28/42/2
f 28/49/3 7/11/3 24/50/3
f 7/11/3 8/13/3 24/50/3
f 24/50/3 8/13/3 23/32/3
f 24/19/4 27/31/4 28/28/4
f 27/31/4 24/19/4 25/17/4
f 25/45/5 26/46/5 27/51/5
f 20/33/5 15/35/5 18/52/5
f 18/52/5 15/35/5 17/53/5
o Mesh6_Group8_Group3_Group1_Model
v 5.925569 -0.020031 3.943176
v -5.741081 -0.020031 3.891093
v 5.925569 -0.020031 3.891093
v -5.741081 -0.020031 3.943176
v -5.741081 0.179219 3.943176
v 5.925569 0.179219 3.943176
v 5.925569 0.179219 3.891093
v 5.925569 2.570518 3.734843
v 5.925569 -0.418581 3.891092
v 5.925569 -1.408331 3.917134
v 5.925569 -2.012796 3.917134
v 5.925569 -2.012796 3.734842
v -5.741081 -2.012796 3.734842
v -5.741081 -2.012796 3.917134
v -5.741081 -1.408331 3.917134
v 5.925569 -1.408331 3.943176
v -5.741081 -1.408331 3.943176
v -5.741081 -0.418581 3.943176
v 5.925569 -0.418581 3.943176
v -5.741081 -0.418581 3.891092
v -5.741081 2.570518 3.734843
v -5.741081 2.570518 3.839010
v 5.925569 2.570518 3.839009
v 5.925569 1.773418 3.839009
v -5.741081 1.773418 3.839010
v -5.741081 0.179219 3.891093
v -5.741081 1.773418 3.891093
v 5.925569 1.773418 3.891093
vt -0.005748 0.747641
vt -0.003832 0.000000
vt -0.003832 0.747641
vt -0.005748 0.000000
vt 0.429201 0.130605
vt 0.000000 0.143665
vt 0.000000 0.130605
vt 0.429201 0.143665
vt -0.005748 0.143665
vt -0.005748 0.130605
vt -0.003832 0.143665
vt -0.003832 0.130605
vt 0.001916 0.300391
vt -0.003832 0.104484
vt -0.004790 0.039618
vt -0.004790 0.000000
vt 0.001916 0.000000
vt -0.004790 0.747641
vt 0.001916 0.747641
vt 0.429201 0.000000
vt 0.000000 0.039618
vt 0.000000 0.000000
vt 0.429201 0.039618
vt 0.000000 0.104484
vt 0.429201 0.104484
vt -0.005748 0.104484
vt -0.005748 0.039618
vt 0.003832 0.747641
vt 0.005748 0.000000
vt 0.005748 0.747641
vt 0.003832 0.000000
vt -0.001916 0.300391
vt 0.003832 0.104484
vt 0.003832 0.130605
vt 0.004790 0.039618
vt -0.001916 0.000000
vt 0.004790 0.000000
vt -0.429201 0.300391
vt 0.000000 0.300391
vt -0.429201 0.000000
vt -0.001916 0.747641
vt 0.429201 0.248149
vt 0.429201 0.300391
vt 0.000000 0.248149
vt 0.001916 0.248149
vt 0.003832 0.143665
vt 0.005748 0.143665
vt 0.005748 0.130605
vt -0.003832 0.248149
vt -0.001916 0.248149
vt 0.003832 0.248149
vt 0.005748 0.104484
vt 0.005748 0.039618
vn 0.000000 -1.000000 0.000000
vn 0.000000 0.000000 1.000000
vn 1.000000 0.000000 0.000000
vn 0.000000 1.000000 0.000000
vn -1.000000 0.000000 0.000000
vn 0.000000 0.000000 -1.000000
usemtl dekore263_links_gross_h806_st9_xld
s 1
f 29/54/7 30/55/7 31/56/7
f 30/55/7 29/54/7 32/57/7
f 29/58/8 33/59/8 32/60/8
f 33/59/8 29/58/8 34/61/8
f 34/62/9 29/63/9 35/64/9
f 31/65/9 35/64/9 29/63/9
f 31/65/9 36/66/9 35/64/9
f 37/67/9 36/66/9 31/65/9
f 38/68/9 36/66/9 37/67/9
f 39/69/9 36/66/9 38/68/9
f 36/66/9 39/69/9 40/70/9
f 39/71/7 41/70/7 40/72/7
f 41/70/7 39/71/7 42/69/7
f 39/73/8 43/74/8 42/75/8
f 43/74/8 39/73/8 38/76/8
f 44/54/7 43/69/7 38/71/7
f 43/69/7 44/54/7 45/57/7
f 44/76/8 46/77/8 45/74/8
f 46/77/8 44/76/8 47/78/8
f 47/79/9 44/80/9 37/67/9
f 38/68/9 37/67/9 44/80/9
f 37/81/10 46/82/10 47/83/10
f 46/82/10 37/81/10 48/84/10
f 37/78/8 30/60/8 48/77/8
f 30/60/8 37/78/8 31/58/8
f 49/85/11 48/86/11 30/87/11
f 49/85/11 43/88/11 48/86/11
f 41/89/11 43/88/11 49/85/11
f 43/88/11 41/89/11 42/90/11
f 36/91/12 41/75/12 49/92/12
f 41/75/12 36/91/12 40/93/12
f 50/70/10 36/94/10 49/89/10
f 36/94/10 50/70/10 51/72/10
f 50/92/8 52/95/8 51/96/8
f 52/95/8 50/92/8 53/97/8
f 49/85/11 53/98/11 50/66/11
f 49/85/11 54/99/11 53/98/11
f 49/85/11 30/87/11 54/99/11
f 54/99/11 30/87/11 33/100/11
f 33/100/11 30/87/11 32/101/11
f 33/82/10 35/81/10 54/84/10
f 35/81/10 33/82/10 34/83/10
f 35/61/8 55/97/8 54/59/8
f 55/97/8 35/61/8 56/95/8
f 56/102/9 35/64/9 52/103/9
f 35/64/9 36/66/9 52/103/9
f 52/103/9 36/66/9 51/85/9
f 52/72/10 55/84/10 56/81/10
f 55/84/10 52/72/10 53/70/10
f 53/98/11 54/99/11 55/104/11
f 48/86/11 43/88/11 46/105/11
f 46/105/11 43/88/11 45/106/11
o Mesh8_Group10_Group1_Model
v -5.531531 -6.593670 -3.895375
v -5.531531 -6.908631 3.318175
v -5.531531 -6.593671 3.318175
v -5.531531 -6.908630 -3.895375
v 5.784153 -6.908630 -3.895375
v 5.784153 -6.593670 -3.895375
v 5.993719 -6.593670 -4.312025
v -5.741081 -6.593670 -4.312025
v -5.741081 -6.593671 3.734841
v 5.993719 -6.593671 3.734841
v 5.784153 -6.593671 3.318175
v 5.784153 -6.908631 3.318175
v 5.993719 7.264569 3.734844
v 5.993719 7.264570 -4.312023
v 5.888936 -6.383695 -4.312025
v -5.636306 -6.383695 -4.312025
v -5.741081 7.264570 -4.312023
v -5.636306 7.054579 -4.312023
v 5.888936 7.054579 -4.312023
v 5.888936 -6.383695 -4.155775
v 5.888936 7.054579 -4.155773
v 5.888936 -6.383696 3.734841
v 5.888936 7.054578 3.734844
v -5.636306 -6.383696 3.734841
v -5.741081 7.264569 3.734844
v -5.636306 7.054578 3.734844
v -5.636306 -6.383695 -4.155775
v -5.636306 7.054579 -4.155773
vt -0.288370 -0.042087
vt -0.022993 -0.062113
vt -0.022993 -0.042087
vt -0.288370 -0.062113
vt -0.886017 -0.042087
vt -1.713760 -0.062113
vt -0.886017 -0.062113
vt -1.713760 -0.042087
vt -0.886017 0.502321
vt -1.729090 0.529023
vt -1.713760 0.502321
vt -0.870688 0.529023
vt -0.870688 0.013351
vt -0.886017 0.040052
vt -1.729090 0.013351
vt -1.713760 0.040052
vt 0.886017 -0.062113
vt 1.713760 -0.042087
vt 0.886017 -0.042087
vt 1.713760 -0.062113
vt 0.288370 -0.062113
vt 0.022993 -0.042087
vt 0.022993 -0.062113
vt 0.288370 -0.042087
vt 0.303698 -0.042087
vt 0.007664 0.839061
vt 0.007664 -0.042087
vt 0.303698 0.839061
vt -1.729090 -0.042087
vt -1.721430 -0.028736
vt -1.729090 0.839061
vt -0.870688 -0.042087
vt -0.878352 -0.028736
vt -0.870688 0.839061
vt -0.878352 0.825711
vt -1.721430 0.825711
vt -0.297950 -0.028736
vt -0.303698 0.825711
vt -0.303698 -0.028736
vt -0.297950 0.825711
vt -0.007664 -0.028736
vt -0.007664 0.825711
vt 1.721430 -0.028736
vt 1.729090 0.839061
vt 1.721430 0.825711
vt 1.729090 -0.042087
vt 0.870688 -0.042087
vt 0.878352 -0.028736
vt 0.870688 0.839061
vt 0.878352 0.825711
vt 0.297950 -0.028736
vt 0.007664 0.825711
vt 0.007664 -0.028736
vt 0.297950 0.825711
vt 0.303698 -0.028736
vt 0.303698 0.825711
vt -1.721430 0.529023
vt -0.878352 0.519010
vt -0.878352 0.529023
vt -1.721430 0.519010
vt -0.878352 0.013351
vt -1.721430 0.013351
vt 1.729090 0.013351
vt 0.870688 0.529023
vt 0.870688 0.013351
vt 1.729090 0.529023
vt -0.303698 0.839061
vt -0.007664 -0.042087
vt -0.007664 0.839061
vt -0.303698 -0.042087
vt 1.721430 0.519010
vt 0.878352 0.529023
vt 0.878352 0.519010
vt 1.721430 0.529023
vt 1.721430 0.013351
vt 0.878352 0.013351
vn -1.000000 0.000000 0.000000
vn 0.000000 0.000000 -1.000000
vn 0.000000 -1.000000 -0.000000
vn 0.000000 0.000000 1.000000
vn 1.000000 0.000000 0.000000
vn 0.000000 1.000000 0.000000
usemtl dekore263_links_gross_h806_st9_xld
s 1
f 57/107/13 58/108/13 59/109/13
f 58/108/13 57/107/13 60/110/13
f 57/111/14 61/112/14 60/113/14
f 61/112/14 57/111/14 62/114/14
f 57/115/15 63/116/15 62/117/15
f 57/115/15 64/118/15 63/116/15
f 64/118/15 57/115/15 65/119/15
f 59/120/15 65/119/15 57/115/15
f 65/119/15 59/120/15 66/121/15
f 66/121/15 59/120/15 67/122/15
f 58/123/16 67/124/16 59/125/16
f 67/124/16 58/123/16 68/126/16
f 58/120/15 61/117/15 68/122/15
f 61/117/15 58/120/15 60/115/15
f 61/127/17 67/128/17 68/129/17
f 67/128/17 61/127/17 62/130/17
f 62/117/15 63/116/15 67/122/15
f 66/121/15 67/122/15 63/116/15
f 63/131/17 69/132/17 66/133/17
f 69/132/17 63/131/17 70/134/17
f 63/135/14 71/136/14 70/137/14
f 71/136/14 63/135/14 64/138/14
f 71/136/14 64/138/14 72/139/14
f 73/140/14 72/139/14 64/138/14
f 72/139/14 73/140/14 74/141/14
f 74/141/14 73/140/14 75/142/14
f 70/137/14 75/142/14 73/140/14
f 70/137/14 71/136/14 75/142/14
f 76/143/13 75/144/13 71/145/13
f 75/144/13 76/143/13 77/146/13
f 78/147/13 77/146/13 76/143/13
f 77/146/13 78/147/13 79/148/13
f 78/149/16 69/150/16 79/151/16
f 78/149/16 66/152/16 69/150/16
f 66/152/16 78/149/16 65/153/16
f 80/154/16 65/153/16 78/149/16
f 65/153/16 80/154/16 81/155/16
f 81/155/16 80/154/16 82/156/16
f 83/157/17 82/158/17 80/159/17
f 82/158/17 83/157/17 84/160/17
f 72/161/17 84/160/17 83/157/17
f 84/160/17 72/161/17 74/162/17
f 75/163/15 84/164/15 74/165/15
f 84/164/15 75/163/15 77/166/15
f 77/166/15 82/167/15 84/164/15
f 82/167/15 77/166/15 79/168/15
f 79/151/16 69/150/16 82/156/16
f 81/155/16 82/156/16 69/150/16
f 69/169/18 73/170/18 81/171/18
f 73/170/18 69/169/18 70/172/18
f 73/173/13 65/174/13 81/175/13
f 65/174/13 73/173/13 64/176/13
f 76/177/18 72/178/18 83/179/18
f 72/178/18 76/177/18 71/180/18
f 83/179/18 78/181/18 76/177/18
f 78/181/18 83/179/18 80/182/18
o Mesh1_Group2_Group1_Model
v 6.100398 6.945519 -4.103723
v -5.634401 6.945519 -4.155773
v -5.634401 6.945519 -4.103723
v 6.100398 6.945519 -4.155773
v 6.100398 -6.387795 -4.155775
v 6.100398 -6.387795 -4.103725
v -5.634401 -6.387795 -4.103725
v -5.634401 -6.387795 -4.155775
vt 55.000000 0.000000
vt 0.000000 0.125000
vt 0.000000 0.000000
vt 55.000000 0.125000
vt 0.000000 32.000000
vt 0.125000 0.000000
vt 0.125000 32.000000
vt 55.000000 32.000000
vt -0.125000 32.000000
vt -0.125000 0.000000
vt -55.000000 0.000000
vt -55.000000 32.000000
vt -55.000000 0.125000
vn 0.000000 1.000000 0.000000
vn 1.000000 -0.000000 0.000000
vn 0.000000 -0.000000 1.000000
vn -1.000000 0.000000 0.000000
vn 0.000000 0.000000 -1.000000
vn 0.000000 -1.000000 0.000000
usemtl _2
s 1
f 85/183/19 86/184/19 87/185/19
f 86/184/19 85/183/19 88/186/19
f 85/187/20 89/188/20 88/189/20
f 89/188/20 85/187/20 90/185/20
f 85/190/21 91/185/21 90/183/21
f 91/185/21 85/190/21 87/187/21
f 86/191/22 91/185/22 87/187/22
f 91/185/22 86/191/22 92/192/22
f 86/187/23 89/193/23 92/185/23
f 89/193/23 86/187/23 88/194/23
f 89/195/24 91/185/24 92/184/24
f 91/185/24 89/195/24 90/193/24
o Mesh3_Group5_Group3_Group1_Model
v 5.925569 4.563269 3.943177
v -5.741081 4.563269 3.891093
v 5.925569 4.563269 3.891093
v -5.741081 4.563269 3.943177
v -5.741081 4.762568 3.943177
v 5.925569 4.762568 3.943177
v 5.925569 4.762568 3.891093
v 5.925569 7.153869 3.734844
v 5.925569 4.164719 3.891093
v 5.925569 3.175019 3.917135
v 5.925569 2.570518 3.917135
v 5.925569 2.570518 3.734843
v -5.741081 2.570518 3.734843
v -5.741081 2.570518 3.917135
v -5.741081 3.175019 3.917135
v 5.925569 3.175019 3.943176
v -5.741081 3.175019 3.943177
v -5.741081 4.164719 3.943177
v 5.925569 4.164719 3.943177
v -5.741081 4.164719 3.891093
v -5.741081 7.153869 3.734844
v -5.741081 7.153869 3.839011
v 5.925569 7.153869 3.839010
v 5.925569 6.356769 3.839010
v -5.741081 6.356769 3.839010
v -5.741081 4.762568 3.891093
v -5.741081 6.356769 3.891093
v 5.925569 6.356769 3.891093
vt -0.005748 0.747641
vt -0.003832 0.000000
vt -0.003832 0.747641
vt -0.005748 0.000000
vt 0.429201 0.130605
vt 0.000000 0.143665
vt 0.000000 0.130605
vt 0.429201 0.143665
vt -0.005748 0.143665
vt -0.005748 0.130605
vt -0.003832 0.143665
vt -0.003832 0.130605
vt 0.001916 0.300391
vt -0.003832 0.104484
vt -0.004790 0.039618
vt -0.004790 0.000000
vt 0.001916 0.000000
vt -0.004790 0.747641
vt 0.001916 0.747641
vt 0.429201 0.000000
vt 0.000000 0.039618
vt 0.000000 0.000000
vt 0.429201 0.039618
vt 0.000000 0.104484
vt 0.429201 0.104484
vt -0.005748 0.104484
vt -0.005748 0.039618
vt 0.003832 0.747641
vt 0.005748 0.000000
vt 0.005748 0.747641
vt 0.003832 0.000000
vt -0.001916 0.300391
vt 0.003832 0.104484
vt 0.003832 0.130605
vt 0.004790 0.039618
vt -0.001916 0.000000
vt 0.004790 0.000000
vt -0.429201 0.300391
vt 0.000000 0.300391
vt -0.429201 0.000000
vt -0.001916 0.747641
vt 0.429201 0.248149
vt 0.429201 0.300391
vt 0.000000 0.248149
vt 0.001916 0.248149
vt 0.003832 0.143665
vt 0.005748 0.143665
vt 0.005748 0.130605
vt -0.003832 0.248149
vt -0.001916 0.248149
vt 0.003832 0.248149
vt 0.005748 0.104484
vt 0.005748 0.039618
vn 0.000000 -1.000000 0.000000
vn 0.000000 0.000000 1.000000
vn 1.000000 0.000000 0.000000
vn 0.000000 1.000000 0.000000
vn -1.000000 -0.000000 0.000000
vn 0.000000 0.000000 -1.000000
usemtl dekore263_links_gross_h806_st9_xld
s 1
f 93/196/25 94/197/25 95/198/25
f 94/197/25 93/196/25 96/199/25
f 93/200/26 97/201/26 96/202/26
f 97/201/26 93/200/26 98/203/26
f 98/204/27 93/205/27 99/206/27
f 95/207/27 99/206/27 93/205/27
f 95/207/27 100/208/27 99/206/27
f 101/209/27 100/208/27 95/207/27
f 102/210/27 100/208/27 101/209/27
f 103/211/27 100/208/27 102/210/27
f 100/208/27 103/211/27 104/212/27
f 103/213/25 105/212/25 104/214/25
f 105/212/25 103/213/25 106/211/25
f 103/215/26 107/216/26 106/217/26
f 107/216/26 103/215/26 102/218/26
f 108/196/25 107/211/25 102/213/25
f 107/211/25 108/196/25 109/199/25
f 108/218/26 110/219/26 109/216/26
f 110/219/26 108/218/26 111/220/26
f 111/221/27 108/222/27 101/209/27
f 102/210/27 101/209/27 108/222/27
f 101/223/28 110/224/28 111/225/28
f 110/224/28 101/223/28 112/226/28
f 101/220/26 94/202/26 112/219/26
f 94/202/26 101/220/26 95/200/26
f 113/227/29 112/228/29 94/229/29
f 113/227/29 107/230/29 112/228/29
f 105/231/29 107/230/29 113/227/29
f 107/230/29 105/231/29 106/232/29
f 100/233/30 105/217/30 113/234/30
f 105/217/30 100/233/30 104/235/30
f 114/212/28 100/236/28 113/231/28
f 100/236/28 114/212/28 115/214/28
f 114/234/26 116/237/26 115/238/26
f 116/237/26 114/234/26 117/239/26
f 113/227/29 117/240/29 114/208/29
f 113/227/29 118/241/29 117/240/29
f 113/227/29 94/229/29 118/241/29
f 118/241/29 94/229/29 97/242/29
f 97/242/29 94/229/29 96/243/29
f 97/224/28 99/223/28 118/226/28
f 99/223/28 97/224/28 98/225/28
f 99/203/26 119/239/26 118/201/26
f 119/239/26 99/203/26 120/237/26
f 120/244/27 99/206/27 116/245/27
f 99/206/27 100/208/27 116/245/27
f 116/245/27 100/208/27 115/227/27
f 116/214/28 119/226/28 120/223/28
f 119/226/28 116/214/28 117/212/28
f 117/240/29 118/241/29 119/246/29
f 112/228/29 107/230/29 110/247/29
f 110/247/29 107/230/29 109/248/29
