# Blender v2.76 (sub 0) OBJ File: ''
# www.blender.org
mtllib 3.mtl
o Mesh5_Group7_Group3_Group1_Model
v 0.397013 -0.308426 0.264193
v -0.384652 -0.308426 0.260703
v 0.397013 -0.308426 0.260703
v -0.384652 -0.308426 0.264193
v -0.384652 -0.295075 0.264193
v 0.397013 -0.295075 0.264193
v 0.397013 -0.295075 0.260703
v 0.397013 -0.134857 0.250234
v 0.397013 -0.335129 0.260703
v 0.397013 -0.401441 0.262448
v 0.397013 -0.441941 0.262448
v 0.397013 -0.441941 0.250234
v -0.384652 -0.441941 0.250234
v -0.384652 -0.441941 0.262448
v -0.384652 -0.401441 0.262448
v 0.397013 -0.401441 0.264193
v -0.384652 -0.401441 0.264193
v -0.384652 -0.335129 0.264193
v 0.397013 -0.335129 0.264193
v -0.384652 -0.335129 0.260703
v -0.384652 -0.134857 0.250234
v -0.384652 -0.134857 0.257214
v 0.397013 -0.134857 0.257214
v 0.397013 -0.188263 0.257214
v -0.384652 -0.188263 0.257214
v -0.384652 -0.295075 0.260703
v -0.384652 -0.188263 0.260703
v 0.397013 -0.188263 0.260703
vt -0.005748 0.747641
vt -0.003832 0.000000
vt -0.003832 0.747641
vt -0.005748 0.000000
vt 0.429201 0.130605
vt 0.000000 0.143665
vt 0.000000 0.130605
vt 0.429201 0.143665
vt -0.005748 0.143665
vt -0.005748 0.130605
vt -0.003832 0.143665
vt -0.003832 0.130605
vt 0.001916 0.300391
vt -0.003832 0.104484
vt -0.004790 0.039618
vt -0.004790 0.000000
vt 0.001916 0.000000
vt -0.004790 0.747641
vt 0.001916 0.747641
vt 0.429201 0.000000
vt 0.000000 0.039618
vt 0.000000 0.000000
vt 0.429201 0.039618
vt 0.000000 0.104484
vt 0.429201 0.104484
vt -0.005748 0.104484
vt -0.005748 0.039618
vt 0.003832 0.747641
vt 0.005748 0.000000
vt 0.005748 0.747641
vt 0.003832 0.000000
vt -0.001916 0.300391
vt 0.003832 0.104484
vt 0.003832 0.130605
vt 0.004790 0.039618
vt -0.001916 0.000000
vt 0.004790 0.000000
vt -0.429201 0.300391
vt 0.000000 0.300391
vt -0.429201 0.000000
vt -0.001916 0.747641
vt 0.429201 0.248149
vt 0.429201 0.300391
vt 0.000000 0.248149
vt 0.001916 0.248149
vt 0.003832 0.143665
vt 0.005748 0.143665
vt 0.005748 0.130605
vt -0.003832 0.248149
vt -0.001916 0.248149
vt 0.003832 0.248149
vt 0.005748 0.104484
vt 0.005748 0.039618
vn 0.000000 -1.000000 0.000000
vn 0.000000 0.000000 1.000000
vn 1.000000 0.000000 0.000000
vn 0.000000 1.000000 0.000000
vn -1.000000 -0.000000 0.000000
vn 0.000000 0.000000 -1.000000
usemtl dekore263_links_gross_h806_st9_xld
s 1
f 1/1/1 2/2/1 3/3/1
f 2/2/1 1/1/1 4/4/1
f 1/5/2 5/6/2 4/7/2
f 5/6/2 1/5/2 6/8/2
f 6/9/3 1/10/3 7/11/3
f 3/12/3 7/11/3 1/10/3
f 3/12/3 8/13/3 7/11/3
f 9/14/3 8/13/3 3/12/3
f 10/15/3 8/13/3 9/14/3
f 11/16/3 8/13/3 10/15/3
f 8/13/3 11/16/3 12/17/3
f 11/18/1 13/17/1 12/19/1
f 13/17/1 11/18/1 14/16/1
f 11/20/2 15/21/2 14/22/2
f 15/21/2 11/20/2 10/23/2
f 16/1/1 15/16/1 10/18/1
f 15/16/1 16/1/1 17/4/1
f 16/23/2 18/24/2 17/21/2
f 18/24/2 16/23/2 19/25/2
f 19/26/3 16/27/3 9/14/3
f 10/15/3 9/14/3 16/27/3
f 9/28/4 18/29/4 19/30/4
f 18/29/4 9/28/4 20/31/4
f 9/25/2 2/7/2 20/24/2
f 2/7/2 9/25/2 3/5/2
f 21/32/5 20/33/5 2/34/5
f 21/32/5 15/35/5 20/33/5
f 13/36/5 15/35/5 21/32/5
f 15/35/5 13/36/5 14/37/5
f 8/38/6 13/22/6 21/39/6
f 13/22/6 8/38/6 12/40/6
f 22/17/4 8/41/4 21/36/4
f 8/41/4 22/17/4 23/19/4
f 22/39/2 24/42/2 23/43/2
f 24/42/2 22/39/2 25/44/2
f 21/32/5 25/45/5 22/13/5
f 21/32/5 26/46/5 25/45/5
f 21/32/5 2/34/5 26/46/5
f 26/46/5 2/34/5 5/47/5
f 5/47/5 2/34/5 4/48/5
f 5/29/4 7/28/4 26/31/4
f 7/28/4 5/29/4 6/30/4
f 7/8/2 27/44/2 26/6/2
f 27/44/2 7/8/2 28/42/2
f 28/49/3 7/11/3 24/50/3
f 7/11/3 8/13/3 24/50/3
f 24/50/3 8/13/3 23/32/3
f 24/19/4 27/31/4 28/28/4
f 27/31/4 24/19/4 25/17/4
f 25/45/5 26/46/5 27/51/5
f 20/33/5 15/35/5 18/52/5
f 18/52/5 15/35/5 17/53/5
o Mesh1_Group2_Group1_Model
v 0.408727 0.465350 -0.274949
v -0.377505 0.465350 -0.278437
v -0.377505 0.465350 -0.274949
v 0.408727 0.465350 -0.278437
v 0.408727 -0.427982 -0.278437
v 0.408727 -0.427982 -0.274950
v -0.377505 -0.427982 -0.274950
v -0.377505 -0.427982 -0.278437
vt 55.000000 0.000000
vt 0.000000 0.125000
vt 0.000000 0.000000
vt 55.000000 0.125000
vt 0.000000 32.000000
vt 0.125000 0.000000
vt 0.125000 32.000000
vt 55.000000 32.000000
vt -0.125000 32.000000
vt -0.125000 0.000000
vt -55.000000 0.000000
vt -55.000000 32.000000
vt -55.000000 0.125000
vn 0.000000 1.000000 0.000000
vn 1.000000 0.000000 0.000000
vn 0.000000 -0.000000 1.000000
vn -1.000000 -0.000000 0.000000
vn 0.000000 0.000000 -1.000000
vn 0.000000 -1.000000 0.000000
usemtl _2
s 1
f 29/54/7 30/55/7 31/56/7
f 30/55/7 29/54/7 32/57/7
f 29/58/8 33/59/8 32/60/8
f 33/59/8 29/58/8 34/56/8
f 29/61/9 35/56/9 34/54/9
f 35/56/9 29/61/9 31/58/9
f 30/62/10 35/56/10 31/58/10
f 35/56/10 30/62/10 36/63/10
f 30/58/11 33/64/11 36/56/11
f 33/64/11 30/58/11 32/65/11
f 33/66/12 35/56/12 36/55/12
f 35/56/12 33/66/12 34/64/12
o Mesh3_Group5_Group3_Group1_Model
v 0.397013 0.305739 0.264193
v -0.384652 0.305739 0.260703
v 0.397013 0.305739 0.260703
v -0.384652 0.305739 0.264193
v -0.384652 0.319092 0.264193
v 0.397013 0.319092 0.264193
v 0.397013 0.319092 0.260703
v 0.397013 0.479309 0.250235
v 0.397013 0.279036 0.260703
v 0.397013 0.212726 0.262448
v 0.397013 0.172225 0.262448
v 0.397013 0.172225 0.250235
v -0.384652 0.172225 0.250235
v -0.384652 0.172225 0.262448
v -0.384652 0.212726 0.262448
v 0.397013 0.212726 0.264193
v -0.384652 0.212726 0.264193
v -0.384652 0.279036 0.264193
v 0.397013 0.279036 0.264193
v -0.384652 0.279036 0.260703
v -0.384652 0.479309 0.250235
v -0.384652 0.479309 0.257214
v 0.397013 0.479309 0.257214
v 0.397013 0.425903 0.257214
v -0.384652 0.425903 0.257214
v -0.384652 0.319092 0.260703
v -0.384652 0.425903 0.260703
v 0.397013 0.425903 0.260703
vt -0.005748 0.747641
vt -0.003832 0.000000
vt -0.003832 0.747641
vt -0.005748 0.000000
vt 0.429201 0.130605
vt 0.000000 0.143665
vt 0.000000 0.130605
vt 0.429201 0.143665
vt -0.005748 0.143665
vt -0.005748 0.130605
vt -0.003832 0.143665
vt -0.003832 0.130605
vt 0.001916 0.300391
vt -0.003832 0.104484
vt -0.004790 0.039618
vt -0.004790 0.000000
vt 0.001916 0.000000
vt -0.004790 0.747641
vt 0.001916 0.747641
vt 0.429201 0.000000
vt 0.000000 0.039618
vt 0.000000 0.000000
vt 0.429201 0.039618
vt 0.000000 0.104484
vt 0.429201 0.104484
vt -0.005748 0.104484
vt -0.005748 0.039618
vt 0.003832 0.747641
vt 0.005748 0.000000
vt 0.005748 0.747641
vt 0.003832 0.000000
vt -0.001916 0.300391
vt 0.003832 0.104484
vt 0.003832 0.130605
vt 0.004790 0.039618
vt -0.001916 0.000000
vt 0.004790 0.000000
vt -0.429201 0.300391
vt 0.000000 0.300391
vt -0.429201 0.000000
vt -0.001916 0.747641
vt 0.429201 0.248149
vt 0.429201 0.300391
vt 0.000000 0.248149
vt 0.001916 0.248149
vt 0.003832 0.143665
vt 0.005748 0.143665
vt 0.005748 0.130605
vt -0.003832 0.248149
vt -0.001916 0.248149
vt 0.003832 0.248149
vt 0.005748 0.104484
vt 0.005748 0.039618
vn 0.000000 -1.000000 0.000000
vn 0.000000 0.000000 1.000000
vn 1.000000 0.000000 0.000000
vn 0.000000 1.000000 0.000000
vn -1.000000 -0.000000 0.000000
vn 0.000000 0.000000 -1.000000
usemtl dekore263_links_gross_h806_st9_xld
s 1
f 37/67/13 38/68/13 39/69/13
f 38/68/13 37/67/13 40/70/13
f 37/71/14 41/72/14 40/73/14
f 41/72/14 37/71/14 42/74/14
f 42/75/15 37/76/15 43/77/15
f 39/78/15 43/77/15 37/76/15
f 39/78/15 44/79/15 43/77/15
f 45/80/15 44/79/15 39/78/15
f 46/81/15 44/79/15 45/80/15
f 47/82/15 44/79/15 46/81/15
f 44/79/15 47/82/15 48/83/15
f 47/84/13 49/83/13 48/85/13
f 49/83/13 47/84/13 50/82/13
f 47/86/14 51/87/14 50/88/14
f 51/87/14 47/86/14 46/89/14
f 52/67/13 51/82/13 46/84/13
f 51/82/13 52/67/13 53/70/13
f 52/89/14 54/90/14 53/87/14
f 54/90/14 52/89/14 55/91/14
f 55/92/15 52/93/15 45/80/15
f 46/81/15 45/80/15 52/93/15
f 45/94/16 54/95/16 55/96/16
f 54/95/16 45/94/16 56/97/16
f 45/91/14 38/73/14 56/90/14
f 38/73/14 45/91/14 39/71/14
f 57/98/17 56/99/17 38/100/17
f 57/98/17 51/101/17 56/99/17
f 49/102/17 51/101/17 57/98/17
f 51/101/17 49/102/17 50/103/17
f 44/104/18 49/88/18 57/105/18
f 49/88/18 44/104/18 48/106/18
f 58/83/16 44/107/16 57/102/16
f 44/107/16 58/83/16 59/85/16
f 58/105/14 60/108/14 59/109/14
f 60/108/14 58/105/14 61/110/14
f 57/98/17 61/111/17 58/79/17
f 57/98/17 62/112/17 61/111/17
f 57/98/17 38/100/17 62/112/17
f 62/112/17 38/100/17 41/113/17
f 41/113/17 38/100/17 40/114/17
f 41/95/16 43/94/16 62/97/16
f 43/94/16 41/95/16 42/96/16
f 43/74/14 63/110/14 62/72/14
f 63/110/14 43/74/14 64/108/14
f 64/115/15 43/77/15 60/116/15
f 43/77/15 44/79/15 60/116/15
f 60/116/15 44/79/15 59/98/15
f 60/85/16 63/97/16 64/94/16
f 63/97/16 60/85/16 61/83/16
f 61/111/17 62/112/17 63/117/17
f 56/99/17 51/101/17 54/118/17
f 54/118/17 51/101/17 53/119/17
o Mesh8_Group10_Group1_Model
v -0.370613 -0.441776 -0.260990
v -0.370613 -0.462878 0.222318
v -0.370613 -0.441776 0.222318
v -0.370613 -0.462878 -0.260990
v 0.387538 -0.462878 -0.260990
v 0.387538 -0.441776 -0.260990
v 0.401579 -0.441776 -0.288906
v -0.384652 -0.441776 -0.288906
v -0.384652 -0.441776 0.250234
v 0.401579 -0.441776 0.250234
v 0.387538 -0.441776 0.222318
v 0.387538 -0.462878 0.222318
v 0.401579 0.486726 0.250235
v 0.401579 0.486726 -0.288905
v 0.394559 -0.427708 -0.288906
v -0.377632 -0.427708 -0.288906
v -0.384652 0.486726 -0.288905
v -0.377632 0.472657 -0.288905
v 0.394559 0.472657 -0.288905
v 0.394559 -0.427708 -0.278437
v 0.394559 0.472657 -0.278437
v 0.394559 -0.427708 0.250234
v 0.394559 0.472657 0.250235
v -0.377632 -0.427708 0.250234
v -0.384652 0.486726 0.250235
v -0.377632 0.472657 0.250235
v -0.377632 -0.427708 -0.278437
v -0.377632 0.472657 -0.278437
vt -0.288370 -0.042087
vt -0.022993 -0.062113
vt -0.022993 -0.042087
vt -0.288370 -0.062113
vt -0.886017 -0.042087
vt -1.713760 -0.062113
vt -0.886017 -0.062113
vt -1.713760 -0.042087
vt -0.886017 0.502321
vt -1.729090 0.529023
vt -1.713760 0.502321
vt -0.870688 0.529023
vt -0.870688 0.013351
vt -0.886017 0.040052
vt -1.729090 0.013351
vt -1.713760 0.040052
vt 0.886017 -0.062113
vt 1.713760 -0.042087
vt 0.886017 -0.042087
vt 1.713760 -0.062113
vt 0.288370 -0.062113
vt 0.022993 -0.042087
vt 0.022993 -0.062113
vt 0.288370 -0.042087
vt 0.303698 -0.042087
vt 0.007664 0.839061
vt 0.007664 -0.042087
vt 0.303698 0.839061
vt -1.729090 -0.042087
vt -1.721430 -0.028736
vt -1.729090 0.839061
vt -0.870688 -0.042087
vt -0.878352 -0.028736
vt -0.870688 0.839061
vt -0.878352 0.825711
vt -1.721430 0.825711
vt -0.297950 -0.028736
vt -0.303698 0.825711
vt -0.303698 -0.028736
vt -0.297950 0.825711
vt -0.007664 -0.028736
vt -0.007664 0.825711
vt 1.721430 -0.028736
vt 1.729090 0.839061
vt 1.721430 0.825711
vt 1.729090 -0.042087
vt 0.870688 -0.042087
vt 0.878352 -0.028736
vt 0.870688 0.839061
vt 0.878352 0.825711
vt 0.297950 -0.028736
vt 0.007664 0.825711
vt 0.007664 -0.028736
vt 0.297950 0.825711
vt 0.303698 -0.028736
vt 0.303698 0.825711
vt -1.721430 0.529023
vt -0.878352 0.519010
vt -0.878352 0.529023
vt -1.721430 0.519010
vt -0.878352 0.013351
vt -1.721430 0.013351
vt 1.729090 0.013351
vt 0.870688 0.529023
vt 0.870688 0.013351
vt 1.729090 0.529023
vt -0.303698 0.839061
vt -0.007664 -0.042087
vt -0.007664 0.839061
vt -0.303698 -0.042087
vt 1.721430 0.519010
vt 0.878352 0.529023
vt 0.878352 0.519010
vt 1.721430 0.529023
vt 1.721430 0.013351
vt 0.878352 0.013351
vn -1.000000 0.000000 0.000000
vn 0.000000 0.000000 -1.000000
vn -0.000000 -1.000000 -0.000000
vn 0.000000 0.000000 1.000000
vn 1.000000 -0.000000 0.000000
vn 0.000000 1.000000 0.000000
usemtl dekore263_links_gross_h806_st9_xld
s 1
f 65/120/19 66/121/19 67/122/19
f 66/121/19 65/120/19 68/123/19
f 65/124/20 69/125/20 68/126/20
f 69/125/20 65/124/20 70/127/20
f 65/128/21 71/129/21 70/130/21
f 65/128/21 72/131/21 71/129/21
f 72/131/21 65/128/21 73/132/21
f 67/133/21 73/132/21 65/128/21
f 73/132/21 67/133/21 74/134/21
f 74/134/21 67/133/21 75/135/21
f 66/136/22 75/137/22 67/138/22
f 75/137/22 66/136/22 76/139/22
f 66/133/21 69/130/21 76/135/21
f 69/130/21 66/133/21 68/128/21
f 69/140/23 75/141/23 76/142/23
f 75/141/23 69/140/23 70/143/23
f 70/130/21 71/129/21 75/135/21
f 74/134/21 75/135/21 71/129/21
f 71/144/23 77/145/23 74/146/23
f 77/145/23 71/144/23 78/147/23
f 71/148/20 79/149/20 78/150/20
f 79/149/20 71/148/20 72/151/20
f 79/149/20 72/151/20 80/152/20
f 81/153/20 80/152/20 72/151/20
f 80/152/20 81/153/20 82/154/20
f 82/154/20 81/153/20 83/155/20
f 78/150/20 83/155/20 81/153/20
f 78/150/20 79/149/20 83/155/20
f 84/156/19 83/157/19 79/158/19
f 83/157/19 84/156/19 85/159/19
f 86/160/19 85/159/19 84/156/19
f 85/159/19 86/160/19 87/161/19
f 86/162/22 77/163/22 87/164/22
f 86/162/22 74/165/22 77/163/22
f 74/165/22 86/162/22 73/166/22
f 88/167/22 73/166/22 86/162/22
f 73/166/22 88/167/22 89/168/22
f 89/168/22 88/167/22 90/169/22
f 91/170/23 90/171/23 88/172/23
f 90/171/23 91/170/23 92/173/23
f 80/174/23 92/173/23 91/170/23
f 92/173/23 80/174/23 82/175/23
f 83/176/21 92/177/21 82/178/21
f 92/177/21 83/176/21 85/179/21
f 85/179/21 90/180/21 92/177/21
f 90/180/21 85/179/21 87/181/21
f 87/164/22 77/163/22 90/169/22
f 89/168/22 90/169/22 77/163/22
f 77/182/24 81/183/24 89/184/24
f 81/183/24 77/182/24 78/185/24
f 81/186/19 73/187/19 89/188/19
f 73/187/19 81/186/19 72/189/19
f 84/190/24 80/191/24 91/192/24
f 80/191/24 84/190/24 79/193/24
f 91/192/24 86/194/24 84/190/24
f 86/194/24 91/192/24 88/195/24
o Mesh6_Group8_Group3_Group1_Model
v 0.397013 -0.001342 0.264193
v -0.384652 -0.001342 0.260703
v 0.397013 -0.001342 0.260703
v -0.384652 -0.001342 0.264193
v -0.384652 0.012008 0.264193
v 0.397013 0.012008 0.264193
v 0.397013 0.012008 0.260703
v 0.397013 0.172225 0.250235
v 0.397013 -0.028045 0.260703
v 0.397013 -0.094358 0.262448
v 0.397013 -0.134857 0.262448
v 0.397013 -0.134857 0.250234
v -0.384652 -0.134857 0.250234
v -0.384652 -0.134857 0.262448
v -0.384652 -0.094358 0.262448
v 0.397013 -0.094358 0.264193
v -0.384652 -0.094358 0.264193
v -0.384652 -0.028045 0.264193
v 0.397013 -0.028045 0.264193
v -0.384652 -0.028045 0.260703
v -0.384652 0.172225 0.250235
v -0.384652 0.172225 0.257214
v 0.397013 0.172225 0.257214
v 0.397013 0.118819 0.257214
v -0.384652 0.118819 0.257214
v -0.384652 0.012008 0.260703
v -0.384652 0.118819 0.260703
v 0.397013 0.118819 0.260703
vt -0.005748 0.747641
vt -0.003832 0.000000
vt -0.003832 0.747641
vt -0.005748 0.000000
vt 0.429201 0.130605
vt 0.000000 0.143665
vt 0.000000 0.130605
vt 0.429201 0.143665
vt -0.005748 0.143665
vt -0.005748 0.130605
vt -0.003832 0.143665
vt -0.003832 0.130605
vt 0.001916 0.300391
vt -0.003832 0.104484
vt -0.004790 0.039618
vt -0.004790 0.000000
vt 0.001916 0.000000
vt -0.004790 0.747641
vt 0.001916 0.747641
vt 0.429201 0.000000
vt 0.000000 0.039618
vt 0.000000 0.000000
vt 0.429201 0.039618
vt 0.000000 0.104484
vt 0.429201 0.104484
vt -0.005748 0.104484
vt -0.005748 0.039618
vt 0.003832 0.747641
vt 0.005748 0.000000
vt 0.005748 0.747641
vt 0.003832 0.000000
vt -0.001916 0.300391
vt 0.003832 0.104484
vt 0.003832 0.130605
vt 0.004790 0.039618
vt -0.001916 0.000000
vt 0.004790 0.000000
vt -0.429201 0.300391
vt 0.000000 0.300391
vt -0.429201 0.000000
vt -0.001916 0.747641
vt 0.429201 0.248149
vt 0.429201 0.300391
vt 0.000000 0.248149
vt 0.001916 0.248149
vt 0.003832 0.143665
vt 0.005748 0.143665
vt 0.005748 0.130605
vt -0.003832 0.248149
vt -0.001916 0.248149
vt 0.003832 0.248149
vt 0.005748 0.104484
vt 0.005748 0.039618
vn 0.000000 -1.000000 -0.000000
vn 0.000000 0.000000 1.000000
vn 1.000000 0.000000 0.000000
vn 0.000000 1.000000 0.000000
vn -1.000000 -0.000000 0.000000
vn 0.000000 0.000000 -1.000000
usemtl dekore263_links_gross_h806_st9_xld
s 1
f 93/196/25 94/197/25 95/198/25
f 94/197/25 93/196/25 96/199/25
f 93/200/26 97/201/26 96/202/26
f 97/201/26 93/200/26 98/203/26
f 98/204/27 93/205/27 99/206/27
f 95/207/27 99/206/27 93/205/27
f 95/207/27 100/208/27 99/206/27
f 101/209/27 100/208/27 95/207/27
f 102/210/27 100/208/27 101/209/27
f 103/211/27 100/208/27 102/210/27
f 100/208/27 103/211/27 104/212/27
f 103/213/25 105/212/25 104/214/25
f 105/212/25 103/213/25 106/211/25
f 103/215/26 107/216/26 106/217/26
f 107/216/26 103/215/26 102/218/26
f 108/196/25 107/211/25 102/213/25
f 107/211/25 108/196/25 109/199/25
f 108/218/26 110/219/26 109/216/26
f 110/219/26 108/218/26 111/220/26
f 111/221/27 108/222/27 101/209/27
f 102/210/27 101/209/27 108/222/27
f 101/223/28 110/224/28 111/225/28
f 110/224/28 101/223/28 112/226/28
f 101/220/26 94/202/26 112/219/26
f 94/202/26 101/220/26 95/200/26
f 113/227/29 112/228/29 94/229/29
f 113/227/29 107/230/29 112/228/29
f 105/231/29 107/230/29 113/227/29
f 107/230/29 105/231/29 106/232/29
f 100/233/30 105/217/30 113/234/30
f 105/217/30 100/233/30 104/235/30
f 114/212/28 100/236/28 113/231/28
f 100/236/28 114/212/28 115/214/28
f 114/234/26 116/237/26 115/238/26
f 116/237/26 114/234/26 117/239/26
f 113/227/29 117/240/29 114/208/29
f 113/227/29 118/241/29 117/240/29
f 113/227/29 94/229/29 118/241/29
f 118/241/29 94/229/29 97/242/29
f 97/242/29 94/229/29 96/243/29
f 97/224/28 99/223/28 118/226/28
f 99/223/28 97/224/28 98/225/28
f 99/203/26 119/239/26 118/201/26
f 119/239/26 99/203/26 120/237/26
f 120/244/27 99/206/27 116/245/27
f 99/206/27 100/208/27 116/245/27
f 116/245/27 100/208/27 115/227/27
f 116/214/28 119/226/28 120/223/28
f 119/226/28 116/214/28 117/212/28
f 117/240/29 118/241/29 119/246/29
f 112/228/29 107/230/29 110/247/29
f 110/247/29 107/230/29 109/248/29
