# Blender v2.76 (sub 0) OBJ File: ''
# www.blender.org
mtllib 6.mtl
o Mesh1_Group1_Model
v 1.163032 0.391974 -0.209288
v 1.163032 -0.024691 0.207377
v 1.163032 0.391974 0.207377
v 1.163032 -0.024691 -0.209289
v 1.871367 -0.024691 -0.209289
v 1.871367 0.391974 -0.209288
v 2.079697 0.766974 -0.209288
v 1.913032 -0.066361 -0.209289
v 1.913032 0.433639 -0.209288
v 2.079697 -0.733026 -0.209289
v 1.163032 -0.066361 -0.209289
v 1.163032 -0.733026 -0.209289
v 2.079697 -0.066361 0.207376
v 2.079697 -0.733026 0.207376
v 2.079697 0.766974 0.207377
v 1.163032 0.766974 -0.209288
v 1.163032 0.766974 0.207377
v 1.163032 0.433639 -0.209288
v 1.163032 0.433639 0.207377
v 1.163032 -0.733026 0.207376
vt -0.791667 1.500000
vt -0.375000 0.944444
vt -0.375000 1.500000
vt -0.791667 0.944444
vt -3.250000 1.500000
vt -3.958330 0.944444
vt -3.250000 0.944444
vt -3.958330 1.500000
vt -4.166670 2.000000
vt -4.000000 0.888889
vt -4.000000 1.555560
vt -4.166670 0.000000
vt -3.250000 0.888889
vt -3.250000 0.000000
vt 0.791667 0.000000
vt 0.375000 0.888889
vt 0.375000 0.000000
vt 0.375000 2.000000
vt 0.791667 2.000000
vt 3.250000 1.055560
vt 4.166670 0.500000
vt 4.166670 1.055560
vt 3.250000 0.500000
vt -0.791667 1.555560
vt -0.375000 2.000000
vt -0.791667 2.000000
vt -0.375000 1.555560
vt 3.250000 1.555560
vt 4.166670 2.000000
vt 3.250000 2.000000
vt 4.166670 0.888889
vt 3.250000 0.000000
vt 4.166670 0.000000
vt -0.375000 0.000000
vt -0.791667 0.000000
vt -0.791667 0.888889
vt -3.250000 2.000000
vt -3.250000 1.555560
vn -1.000000 0.000000 0.000000
vn 0.059000 -0.768200 -0.637500
vn -0.200000 0.400000 -0.894400
vn -0.797700 0.000000 -0.603000
vn 0.000000 0.000000 -1.000000
vn 1.000000 0.000000 0.000000
vn 0.000000 1.000000 0.000000
vn 0.000000 -0.000000 1.000000
vn 0.000000 0.000000 0.000000
usemtl marble4
s 1
f 1/1/1 2/2/2 3/3/3
f 2/2/4 1/1/1 4/4/1
f 1/5/5 5/6/5 4/7/5
f 5/6/5 1/5/5 6/8/5
f 7/9/5 8/10/5 9/11/5
f 10/12/5 8/10/5 7/9/5
f 10/12/5 11/13/5 8/10/5
f 11/13/5 10/12/5 12/14/5
f 10/15/6 13/16/6 14/17/6
f 13/16/6 10/15/6 15/18/6
f 15/18/6 10/15/6 7/19/6
f 16/20/7 15/21/7 7/22/7
f 15/21/7 16/20/7 17/23/7
f 18/24/1 17/25/1 16/26/1
f 17/25/1 18/24/1 19/27/1
f 19/28/8 15/29/8 17/30/8
f 19/28/8 13/31/8 15/29/8
f 20/32/8 13/31/8 19/28/8
f 13/31/8 20/32/8 14/33/8
f 3/3/3 20/34/1 19/27/9
f 2/2/2 20/34/1 3/3/3
f 20/34/1 2/2/4 12/35/1
f 12/35/1 2/2/4 4/4/1
f 12/35/1 4/4/1 11/36/1
f 16/37/5 9/11/5 18/38/5
f 7/9/5 9/11/5 16/37/5
o Mesh1_Group1_Model.001
v 1.163032 0.433639 -0.209288
v 1.163032 0.391974 0.207377
v 1.163032 0.433639 0.207377
v 1.163032 0.391974 -0.209288
v 1.871367 0.391974 -0.584288
v 1.871367 -0.024691 -0.209289
v 1.871367 0.391974 -0.209288
v 1.871367 -0.024691 -0.584288
v 1.913032 0.433639 -0.584288
v 1.913032 -0.066361 -0.584288
v -1.545303 -0.024691 -0.584288
v -1.503633 -0.066361 -0.584288
v -1.545303 -0.691359 -0.584289
v -1.503633 -0.733026 -0.584289
v -2.045302 -0.691359 -0.584289
v -2.086968 -0.733026 -0.584289
v -2.086968 0.433639 -0.584288
v -2.086968 -0.733026 0.582376
v -2.086968 0.433639 0.582377
v -2.045302 -0.691359 0.582376
v -1.545303 -0.691359 0.582376
v -1.503633 -0.733026 0.582376
v -1.503633 -0.066361 0.582376
v 1.913032 -0.066361 0.582376
v 1.913032 -0.066361 -0.209289
v 1.913032 0.433639 -0.209288
v 1.913032 0.433639 0.582377
v 1.871367 0.391974 0.582377
v -2.045302 0.391974 0.582377
v -2.045302 0.391974 -0.584288
v 1.871367 -0.024691 0.582376
v -1.545303 -0.024691 0.582376
v 2.079697 -0.733026 -0.209289
v 1.163032 -0.733026 0.207376
v 1.163032 -0.733026 -0.209289
v 2.079697 -0.733026 0.207376
v 1.163032 -0.024691 0.207377
v 1.163032 -0.066361 -0.209289
v 1.163032 -0.024691 -0.209289
v 1.163032 -0.066361 0.207376
v 1.913032 -0.066361 0.207376
v 1.871367 -0.024691 0.207377
v 1.913032 0.433639 0.207377
v 1.871367 0.391974 0.207377
vt -0.791667 1.166670
vt -0.375000 1.125000
vt -0.375000 1.166670
vt -0.791667 1.125000
vt -1.166670 1.125000
vt -0.791667 0.708333
vt -1.166670 0.708333
vt -4.000000 1.166670
vt -3.958330 0.708333
vt -3.958330 1.125000
vt -4.000000 0.666667
vt -0.541667 0.708333
vt -0.583333 0.666667
vt -0.541667 0.041667
vt -0.583333 0.000000
vt -0.041667 0.041667
vt 0.000000 0.000000
vt 0.000000 1.166670
vt -1.166670 1.166670
vt -1.166670 0.000000
vt 0.041667 0.041667
vt 0.541667 0.041667
vt 0.583333 0.000000
vt 0.583333 0.666667
vt 1.166670 0.000000
vt 0.000000 0.666667
vt 1.166670 0.666667
vt -0.583333 1.166670
vt -4.000000 0.000000
vt -4.000000 0.791667
vt 0.791667 1.166670
vt 0.791667 0.666667
vt 1.166670 1.166670
vt 4.000000 1.166670
vt 4.000000 0.000000
vt 4.000000 0.791667
vt 3.958330 1.125000
vt 0.041667 1.125000
vt 1.166670 0.041667
vt 0.000000 1.125000
vt 0.000000 0.041667
vt 1.166670 1.125000
vt -0.041667 1.125000
vt -3.958330 1.166670
vt -0.041667 0.000000
vt -0.041667 1.166670
vt -3.958330 0.000000
vt -3.958330 0.791667
vt 0.000000 0.708333
vt 3.958330 1.166670
vt 3.958330 0.000000
vt 3.958330 0.791667
vt 0.541667 1.166670
vt 0.541667 0.000000
vt -1.166670 0.041667
vt 0.041667 1.166670
vt 0.041667 0.000000
vt 0.541667 0.708333
vt 4.000000 0.666667
vt 3.958330 0.708333
vt -4.166670 0.791667
vt -3.250000 0.375000
vt -3.250000 0.791667
vt -4.166670 0.375000
vt 0.375000 0.708333
vt 0.791667 0.708333
vt 0.375000 0.666667
vt -3.250000 0.708333
vt -3.250000 0.666667
vt -3.250000 1.125000
vt -3.250000 1.166670
vn -1.000000 -0.000000 0.000000
vn 0.000000 0.000000 -1.000000
vn 0.000000 -0.000000 1.000000
vn 1.000000 -0.000000 0.000000
vn 0.000000 -1.000000 -0.000000
vn 0.957000 -0.104300 -0.270600
vn -0.000100 1.000000 0.000000
vn -0.711500 0.648500 0.270600
vn 0.000000 1.000000 0.000000
vn 0.000100 -1.000000 -0.000000
vn 0.277800 -0.960600 0.000000
vn -0.166200 0.986100 0.000000
usemtl _Wood_cherry_
s 1
f 21/39/10 22/40/10 23/41/10
f 22/40/10 21/39/10 24/42/10
f 25/43/10 26/44/10 27/42/10
f 26/44/10 25/43/10 28/45/10
f 29/46/11 28/47/11 25/48/11
f 30/49/11 28/47/11 29/46/11
f 30/49/11 31/50/11 28/47/11
f 32/51/11 31/50/11 30/49/11
f 32/51/11 33/52/11 31/50/11
f 34/53/11 33/52/11 32/51/11
f 33/52/11 34/53/11 35/54/11
f 36/55/11 35/54/11 34/53/11
f 35/54/11 36/55/11 37/56/11
f 38/55/10 37/57/10 36/58/10
f 37/57/10 38/55/10 39/56/10
f 38/55/12 40/59/12 39/56/12
f 40/59/12 38/55/12 41/60/12
f 42/61/12 41/60/12 38/55/12
f 41/60/12 42/61/12 43/62/12
f 34/63/13 43/64/13 42/55/13
f 43/64/13 34/63/13 32/65/13
f 30/46/14 43/53/14 32/66/14
f 43/53/14 30/46/14 44/67/14
f 44/67/14 30/46/14 45/68/15
f 30/65/13 46/69/13 45/70/13
f 46/69/13 30/65/13 29/71/13
f 29/72/16 47/73/16 46/74/17
f 37/56/18 47/73/16 29/72/16
f 47/73/16 37/56/18 39/55/18
f 39/56/12 48/75/12 47/72/12
f 39/56/12 49/76/12 48/75/12
f 39/56/12 40/59/12 49/76/12
f 35/77/13 49/78/13 40/79/13
f 49/78/13 35/77/13 50/80/13
f 35/54/11 37/56/11 50/81/11
f 50/81/11 37/56/11 25/48/11
f 29/46/11 25/48/11 37/56/11
f 25/82/19 49/83/14 50/84/14
f 49/83/14 25/82/19 48/85/19
f 48/85/19 25/82/19 27/86/20
f 27/42/10 51/87/10 48/78/10
f 51/87/10 27/42/10 26/44/10
f 28/88/18 51/89/18 26/90/21
f 31/91/18 51/89/18 28/88/18
f 51/89/18 31/91/18 52/92/18
f 31/45/10 41/79/10 52/87/10
f 41/79/10 31/45/10 33/93/10
f 35/94/18 41/92/18 33/91/18
f 41/92/18 35/94/18 40/95/18
f 41/60/12 43/62/12 52/96/12
f 52/96/12 43/62/12 44/97/12
f 52/96/12 44/97/12 51/98/12
f 51/98/12 44/97/12 47/72/12
f 45/70/13 47/56/13 44/64/13
f 47/56/13 45/70/13 46/69/13
f 53/99/14 54/100/14 55/101/14
f 54/100/14 53/99/14 56/102/14
f 57/103/13 58/70/13 59/104/13
f 58/70/13 57/103/13 60/105/13
f 57/106/11 61/49/11 60/107/11
f 61/49/11 57/106/11 62/47/11
f 61/49/11 62/47/11 63/46/11
f 63/46/11 62/47/11 64/48/11
f 63/46/11 64/48/11 22/108/11
f 63/46/11 22/108/11 23/109/11
f 51/98/12 47/72/12 48/75/12
f 38/55/14 34/66/14 42/53/14
f 34/66/14 38/55/14 36/56/14
