# Blender v2.76 (sub 0) OBJ File: ''
# www.blender.org
mtllib 6.mtl
o Mesh1_S1_Box_BC_Model
v -9.703182 0.926388 4.654384
v 9.671818 0.926390 -4.668550
v 9.671818 0.926388 4.654384
v -9.703182 0.926390 -4.668550
v -9.703182 1.238890 -4.668550
v -9.703182 1.238888 4.654384
v 9.671818 1.238888 4.654384
v 9.671818 1.238890 -4.668550
vt -7.500000 23.000000
vt 0.000000 0.000000
vt 0.000000 23.000000
vt -7.500000 0.000000
vt 23.000000 0.000000
vt 0.000000 0.750000
vt 23.000000 0.750000
vt -7.500000 0.750000
vt -23.000000 0.750000
vt -23.000000 0.000000
vt 7.500000 0.750000
vt 7.500000 0.000000
vt 7.500000 23.000000
vn 0.000000 -1.000000 -0.000000
vn -1.000000 0.000000 0.000000
vn 0.000000 0.000000 1.000000
vn 1.000000 0.000000 0.000000
vn 0.000000 0.000000 -1.000000
vn 0.000000 1.000000 0.000000
usemtl Color_000
s 1
f 1/1/1 2/2/1 3/3/1
f 2/2/1 1/1/1 4/4/1
f 1/5/2 5/6/2 4/2/2
f 5/6/2 1/5/2 6/7/2
f 1/4/3 7/6/3 6/8/3
f 7/6/3 1/4/3 3/2/3
f 2/2/4 7/9/4 3/10/4
f 7/9/4 2/2/4 8/6/4
f 2/2/5 5/11/5 8/6/5
f 5/11/5 2/2/5 4/12/5
f 5/12/6 7/3/6 8/2/6
f 7/3/6 5/12/6 6/13/6
o Mesh2_BP_Box_BC_Model
v -9.703182 -5.115294 -4.928967
v 9.671818 -5.427794 -4.928967
v -9.703182 -5.427794 -4.928967
v 9.671818 -5.115294 -4.928967
v 9.671818 -5.115296 4.966883
v -9.703182 -5.115296 4.966883
v -9.703182 -5.427796 4.966883
v 9.671818 -5.427796 4.966883
vt 7.500000 0.750000
vt 0.000000 0.000000
vt 7.500000 0.000000
vt 0.000000 0.750000
vt 0.000000 23.750000
vt 7.500000 23.750000
vt 23.750000 0.000000
vt 23.750000 0.750000
vt -7.500000 23.750000
vt -7.500000 0.000000
vt -23.750000 0.750000
vt -23.750000 0.000000
vt -7.500000 0.750000
vn 0.000000 0.000000 -1.000000
vn 0.000000 1.000000 0.000000
vn -1.000000 0.000000 0.000000
vn 0.000000 -1.000000 -0.000000
vn 1.000000 0.000000 0.000000
vn 0.000000 0.000000 1.000000
usemtl Color_000
s 1
f 9/14/7 10/15/7 11/16/7
f 10/15/7 9/14/7 12/17/7
f 9/16/8 13/18/8 12/15/8
f 13/18/8 9/16/8 14/19/8
f 9/17/9 15/20/9 14/21/9
f 15/20/9 9/17/9 11/15/9
f 10/15/10 15/22/10 11/23/10
f 15/22/10 10/15/10 16/18/10
f 10/15/11 13/24/11 16/25/11
f 13/24/11 10/15/11 12/17/11
usemtl FrontColor
f 13/17/12 15/23/12 16/15/12
f 15/23/12 13/17/12 14/26/12
o Mesh5_RP_Box_BC_Model
v 9.671818 -5.427796 4.966883
v 9.671818 7.280540 -4.928966
v 9.671818 -5.427794 -4.928967
v 9.671818 7.280539 4.966885
v 9.984318 7.280539 4.966885
v 9.984318 -5.427796 4.966883
v 9.984318 -5.427794 -4.928967
v 9.984318 7.280540 -4.928966
vt 23.750000 0.000000
vt 0.000000 30.500000
vt 0.000000 0.000000
vt 23.750000 30.500000
vt -0.750000 -0.000000
vt -0.000000 23.750000
vt -0.750000 23.750000
vt 0.750000 30.500000
vt 0.750000 0.000000
vt 0.750000 23.750000
vt -0.750000 30.500000
vn -1.000000 -0.000000 0.000000
vn 0.000000 -1.000000 -0.000000
vn 0.000000 0.000000 -1.000000
vn 0.000000 1.000000 0.000000
vn 0.000000 -0.000000 1.000000
usemtl Color_000
s 1
f 17/27/13 18/28/13 19/29/13
f 18/28/13 17/27/13 20/30/13
f 19/31/14 22/32/14 17/33/14
f 22/32/14 19/31/14 23/29/14
f 18/34/15 23/29/15 19/35/15
f 23/29/15 18/34/15 24/28/15
f 18/35/16 21/32/16 24/29/16
f 21/32/16 18/35/16 20/36/16
usemtl FrontColor
f 17/31/17 21/28/17 20/37/17
f 21/28/17 17/31/17 22/29/17
o Mesh10_Base_BC_Model
v 9.984318 -5.427797 3.716883
v 9.984318 -7.094460 -4.928967
v 9.984318 -5.427795 -4.928967
v 9.984318 -7.094461 3.716883
v -10.015682 -7.094461 3.716883
v -10.015682 -5.427797 3.716883
v -10.015682 -5.427795 -4.928967
v -10.015682 -7.094460 -4.928967
vt -20.750000 4.000000
vt 0.000000 0.000000
vt 0.000000 4.000000
vt -20.750000 0.000000
vt -9.000000 0.000000
vt -9.000000 4.000000
vt 0.000000 20.750000
vt 9.000000 0.000000
vt 9.000000 20.750000
vt 9.000000 4.000000
vt -9.000000 20.750000
vt 20.750000 0.000000
vt 20.750000 4.000000
vn 1.000000 0.000000 0.000000
vn 0.000000 0.000000 1.000000
vn 0.000000 1.000000 0.000000
vn 0.000000 0.000000 -1.000000
vn 0.000000 -1.000000 -0.000000
vn -1.000000 0.000000 0.000000
usemtl Color_000
s 1
f 25/38/18 26/39/18 27/40/18
f 26/39/18 25/38/18 28/41/18
f 25/40/19 29/42/19 28/39/19
f 29/42/19 25/40/19 30/43/19
f 25/44/20 31/45/20 30/46/20
f 31/45/20 25/44/20 27/39/20
f 26/39/21 31/47/21 27/40/21
f 31/47/21 26/39/21 32/45/21
f 28/44/22 32/42/22 26/39/22
f 32/42/22 28/44/22 29/48/22
f 29/49/23 31/40/23 32/39/23
f 31/40/23 29/49/23 30/50/23
o Mesh9_BR1_Box_BC_Model
v 9.671818 6.968040 -4.720632
v 9.671818 5.301391 -4.928966
v 9.671818 6.968040 -4.928965
v 9.671818 5.301391 -4.720632
v -9.703182 5.301391 -4.720632
v -9.703182 6.968040 -4.720632
v -9.703182 6.968040 -4.928965
v -9.703182 5.301391 -4.928966
vt -0.500000 4.000000
vt 0.000000 0.000000
vt 0.000000 4.000000
vt -0.500000 0.000000
vt -28.750000 0.000000
vt -28.750000 4.000000
vt 0.000000 0.500000
vt 28.750000 0.000000
vt 28.750000 0.500000
vt 28.750000 4.000000
vt -28.750000 0.500000
vt 0.500000 0.000000
vt 0.500000 4.000000
vn 1.000000 -0.000000 0.000000
vn 0.000000 -0.000000 1.000000
vn 0.000000 1.000000 0.000000
vn 0.000000 0.000000 -1.000000
vn 0.000000 -1.000000 0.000000
vn -1.000000 -0.000000 0.000000
usemtl Color_000
s 1
f 33/51/24 34/52/24 35/53/24
f 34/52/24 33/51/24 36/54/24
f 33/53/25 37/55/25 36/52/25
f 37/55/25 33/53/25 38/56/25
f 33/57/26 39/58/26 38/59/26
f 39/58/26 33/57/26 35/52/26
f 34/52/27 39/60/27 35/53/27
f 39/60/27 34/52/27 40/58/27
f 34/52/28 37/61/28 40/55/28
f 37/61/28 34/52/28 36/57/28
f 37/62/29 39/53/29 40/52/29
f 39/53/29 37/62/29 38/63/29
o Mesh6_NFEL1_LP_Box_BC_Model
v -10.015682 -5.427796 4.966883
v -10.015682 7.280540 -4.928966
v -10.015682 -5.427794 -4.928967
v -10.015682 7.280539 4.966885
vt 23.750000 0.000000
vt 0.000000 30.500000
vt 0.000000 0.000000
vt 23.750000 30.500000
vn -1.000000 0.000000 0.000000
usemtl Color_000
s 1
f 41/64/30 42/65/30 43/66/30
f 42/65/30 41/64/30 44/67/30
o Mesh3_TP_Box_BC_Model
v -9.703182 6.968038 4.966885
v -9.703182 7.280540 -4.928965
v -9.703182 6.968040 -4.928965
v -9.703182 7.280538 4.966885
v 9.671818 7.280538 4.966885
v 9.671818 6.968038 4.966885
v 9.671818 6.968040 -4.928965
v 9.671818 7.280540 -4.928965
vt 23.750000 0.000000
vt 0.000000 0.750000
vt 0.000000 0.000000
vt 23.750000 0.750000
vt -7.500000 23.750000
vt 0.000000 23.750000
vt -7.500000 0.000000
vt 7.500000 0.750000
vt 7.500000 0.000000
vt 7.500000 23.750000
vt -23.750000 0.750000
vt -23.750000 0.000000
vt -7.500000 0.750000
vn -1.000000 0.000000 0.000000
vn 0.000000 -1.000000 -0.000000
vn 0.000000 0.000000 -1.000000
vn 0.000000 1.000000 0.000000
vn 1.000000 0.000000 0.000000
vn 0.000000 0.000000 1.000000
usemtl Color_000
s 1
f 45/68/31 46/69/31 47/70/31
f 46/69/31 45/68/31 48/71/31
f 45/72/32 51/70/32 50/73/32
f 51/70/32 45/72/32 47/74/32
f 46/75/33 51/70/33 47/76/33
f 51/70/33 46/75/33 52/69/33
f 46/76/34 49/73/34 52/70/34
f 49/73/34 46/76/34 48/77/34
f 49/78/35 51/70/35 52/69/35
f 51/70/35 49/78/35 50/79/35
usemtl FrontColor
f 45/74/36 49/69/36 48/80/36
f 49/69/36 45/74/36 50/70/36
o Mesh8_BKP_Box_BC_Model
v -9.703182 6.968040 -4.720632
v 9.671818 -5.115295 -4.720634
v -9.703182 -5.115295 -4.720634
v 9.671818 6.968040 -4.720632
v 9.671818 6.968040 -4.668549
v -9.703182 6.968040 -4.668549
v -9.703182 -5.115295 -4.668550
v 9.671818 -5.115295 -4.668550
vt 7.500000 29.000000
vt 0.000000 0.000000
vt 7.500000 0.000000
vt 0.000000 29.000000
vt 0.000000 0.750000
vt 7.500000 0.750000
vt 0.750000 0.000000
vt 0.750000 29.000000
vt -7.500000 0.750000
vt -7.500000 0.000000
vt -0.750000 29.000000
vt -0.750000 0.000000
vt -7.500000 29.000000
vn 0.000000 0.000000 -1.000000
vn 0.000000 1.000000 0.000000
vn -1.000000 0.000000 0.000000
vn 0.000000 -1.000000 0.000000
vn 1.000000 0.000000 0.000000
vn 0.000000 -0.000000 1.000000
usemtl Color_000
s 1
f 53/81/37 54/82/37 55/83/37
f 54/82/37 53/81/37 56/84/37
f 53/83/38 57/85/38 56/82/38
f 57/85/38 53/83/38 58/86/38
f 53/84/39 59/87/39 58/88/39
f 59/87/39 53/84/39 55/82/39
f 54/82/40 59/89/40 55/90/40
f 59/89/40 54/82/40 60/85/40
f 54/82/41 57/91/41 60/92/41
f 57/91/41 54/82/41 56/84/41
f 57/84/42 59/90/42 60/82/42
f 59/90/42 57/84/42 58/93/42
o Mesh4_NFER1_RP_Box_BC_Model
v 9.984318 7.280539 4.966885
v 9.984318 -5.427794 -4.928967
v 9.984318 7.280540 -4.928966
v 9.984318 -5.427796 4.966883
vt -23.750000 30.500000
vt 0.000000 0.000000
vt 0.000000 30.500000
vt -23.750000 0.000000
vn 1.000000 -0.000000 0.000000
usemtl Color_000
s 1
f 61/94/43 62/95/43 63/96/43
f 62/95/43 61/94/43 64/97/43
o Mesh7_LP_Box_BC_Model
v -9.703182 7.280539 4.966885
v -10.015682 -5.427796 4.966883
v -9.703182 -5.427796 4.966883
v -10.015682 7.280539 4.966885
v -10.015682 7.280540 -4.928966
v -9.703182 7.280540 -4.928966
v -9.703182 -5.427794 -4.928967
v -10.015682 -5.427794 -4.928967
vt 0.000000 23.750000
vt 0.750000 0.000000
vt 0.750000 23.750000
vt 0.000000 0.000000
vt -23.750000 30.500000
vt 0.000000 30.500000
vt -23.750000 0.000000
vt -0.750000 23.750000
vt -0.750000 0.000000
vt 0.750000 30.500000
vt -0.750000 30.500000
vn 0.000000 1.000000 0.000000
vn 1.000000 0.000000 0.000000
vn 0.000000 -1.000000 -0.000000
vn 0.000000 0.000000 -1.000000
vn 0.000000 -0.000000 1.000000
usemtl Color_000
s 1
f 65/98/44 69/99/44 68/100/44
f 69/99/44 65/98/44 70/101/44
f 65/102/45 71/101/45 70/103/45
f 71/101/45 65/102/45 67/104/45
f 66/105/46 71/101/46 67/98/46
f 71/101/46 66/105/46 72/106/46
f 69/107/47 71/101/47 72/99/47
f 71/101/47 69/107/47 70/103/47
usemtl FrontColor
f 65/103/48 66/106/48 67/101/48
f 66/106/48 65/103/48 68/108/48
o Mesh11_Model
v 9.984318 -7.094460 -4.928967
v 9.567652 -7.094460 -4.512301
v 9.567652 -7.094460 -4.928967
v 9.984318 -7.094460 -4.512301
vt 0.000000 0.000000
vt 1.000000 -1.000000
vt 1.000000 0.000000
vt 0.000000 -1.000000
vn 0.000000 -1.000000 0.000000
usemtl FrontColor
s 1
f 73/109/49 74/110/49 75/111/49
f 74/110/49 73/109/49 76/112/49
