# Blender v2.76 (sub 0) OBJ File: ''
# www.blender.org
mtllib 3.mtl
o Mesh1_Group1_Model
v 0.265653 -0.574706 -0.000000
v -0.255080 0.571020 0.000001
v -0.255080 -0.574706 -0.000000
v 0.265653 0.571020 0.000001
vt 0.377467 0.041704
vt 0.034349 0.958296
vt 0.034349 0.041704
vt 0.377467 0.958296
vn 0.000000 -0.000000 1.000000
usemtl _5
s 1
f 1/1/1 2/2/1 3/3/1
f 2/2/1 1/1/1 4/4/1
o Mesh1_Group1_Model.001
v -0.307209 -0.626836 -0.000000
v -0.255080 -0.574707 -0.000000
v -0.307209 0.623149 0.000001
v 0.317783 -0.626836 -0.000000
v -0.307209 -0.626836 -0.013224
v 0.317783 -0.626836 -0.013224
v 0.317783 0.623149 -0.013223
v -0.307209 0.623149 -0.013223
v 0.317783 0.623149 0.000001
v -0.255080 0.571020 0.000001
v 0.265653 -0.574707 -0.000000
v 0.265653 0.571020 0.000001
vt 0.000000 0.000000
vt 0.017377 0.017377
vt 0.000000 0.416667
vt 0.208333 0.000000
vt 0.000000 -0.004408
vt 0.208333 -0.004408
vt -0.208333 0.416667
vt -0.208333 0.000000
vt -0.416667 0.000000
vt -0.416667 -0.004408
vt -0.208333 -0.004408
vt 0.017377 0.399290
vt 0.208333 0.416667
vt 0.190957 0.017377
vt 0.190957 0.399290
vt 0.416667 -0.004408
vt 0.416667 0.000000
vn 0.000000 -0.000000 1.000000
vn 0.000000 -1.000000 0.000000
vn 0.000000 0.000000 -1.000000
vn -1.000000 -0.000000 0.000000
vn 0.000000 1.000000 0.000000
vn 1.000000 0.000000 0.000000
usemtl Wood_Cherry_Original
s 1
f 5/5/2 6/6/2 7/7/2
f 6/6/2 5/5/2 8/8/2
f 9/9/3 8/8/3 5/5/3
f 8/8/3 9/9/3 10/10/3
f 9/5/4 11/11/4 10/12/4
f 11/11/4 9/5/4 12/7/4
f 9/9/5 7/13/5 12/14/5
f 7/13/5 9/9/5 5/5/5
f 7/5/6 11/15/6 12/9/6
f 11/15/6 7/5/6 13/12/6
f 7/7/2 14/16/2 13/17/2
f 14/16/2 7/7/2 6/6/2
f 15/18/2 8/8/2 16/19/2
f 6/6/2 8/8/2 15/18/2
f 13/17/2 16/19/2 8/8/2
f 13/17/2 14/16/2 16/19/2
f 8/5/7 11/20/7 13/21/7
f 11/20/7 8/5/7 10/9/7
