# Blender v2.76 (sub 0) OBJ File: ''
# www.blender.org
mtllib 2.mtl
o Mesh1_Model
v -9.802955 -5.999172 0.247024
v -9.638949 -5.835122 0.247024
v 9.882552 -5.999172 0.247026
v -9.802955 6.123529 0.247024
v -9.802955 -5.999172 0.411066
v -9.802955 6.123529 0.411066
v -9.638949 -5.835122 0.411066
v 9.718549 -5.835122 0.411068
v 9.882552 -5.999172 0.411068
v 9.882552 6.123529 0.411067
v 9.882552 6.123529 0.247025
v 9.718549 -5.835122 0.247026
v -9.638949 5.959478 0.411066
v -9.638949 5.959478 0.247024
v 9.718549 5.959478 0.247025
v 9.718549 5.959478 0.411067
v -1.483989 -0.171372 0.247025
v -1.483989 -3.944322 0.247025
v -7.588947 -3.944322 0.247024
v -7.588947 -0.171372 0.247024
v -7.588947 -0.171372 -0.081060
v -1.483989 -0.171372 -0.081059
v -1.483989 -3.944322 -0.081059
v -1.796099 -3.944322 0.109624
v -1.796099 -3.944322 0.027603
v -7.588947 -3.944322 -0.081060
v -1.960152 -3.944322 0.027603
v -1.796099 -3.616271 0.027603
v -1.960152 -3.616271 0.027603
v -1.960152 -3.616271 0.109624
v -1.796099 -3.616271 0.109624
v -1.960152 -3.944322 0.109624
v -2.124157 -3.944322 0.109624
v -2.288210 -3.944322 0.109624
v -2.452266 -3.944322 0.109624
v -2.616318 -3.944322 0.109624
v -3.108432 -3.944322 0.109624
v -3.272487 -3.944322 0.109624
v -3.328438 -3.944322 0.049652
v -6.644723 -3.944322 0.165003
v -6.665974 -3.944322 0.162208
v -6.685773 -3.944322 0.154015
v -6.808776 -3.944322 0.165003
v -6.830027 -3.944322 0.162208
v -6.849828 -3.944322 0.154015
v -6.866778 -3.944322 0.140980
v -6.879829 -3.944322 0.123993
v -6.888029 -3.944322 0.104211
v -6.890830 -3.944322 0.082982
v -6.888029 -3.944322 0.061754
v -6.879829 -3.944322 0.041972
v -6.866778 -3.944322 0.024985
v -6.849828 -3.944322 0.011950
v -6.830027 -3.944322 0.003756
v -6.808776 -3.944322 0.000961
v -6.685773 -3.944322 0.011950
v -6.665974 -3.944322 0.003756
v -6.644723 -3.944322 0.000961
v -3.047331 -3.944322 0.054937
v -2.616318 -3.944322 0.027603
v -2.452266 -3.944322 0.027603
v -2.288210 -3.944322 0.027603
v -2.124157 -3.944322 0.027603
v -2.124157 -3.616271 0.027603
v -2.124157 -3.616271 0.109624
v -2.288210 -3.616271 0.109624
v -2.288210 -3.616271 0.027603
v -2.452266 -3.616271 0.027603
v -2.452266 -3.616271 0.109624
v -2.616318 -3.616271 0.109624
v -2.616318 -3.616271 0.027603
v -3.108432 -3.616271 0.109624
v -3.047331 -3.616271 0.054937
v -3.328438 -3.616271 0.049652
v -3.272487 -3.616271 0.109624
v -6.623523 -3.944322 0.003756
v -6.603722 -3.944322 0.011950
v -6.586772 -3.944322 0.024985
v -6.573720 -3.944322 0.041972
v -6.565521 -3.944322 0.061754
v -6.562722 -3.944322 0.082982
v -6.565521 -3.944322 0.104211
v -6.573720 -3.944322 0.123993
v -6.586772 -3.944322 0.140980
v -6.603722 -3.944322 0.154015
v -6.623523 -3.944322 0.162208
v -6.644723 -3.616271 0.165003
v -6.623523 -3.616271 0.162208
v -6.623523 -3.616271 0.003756
v -6.603722 -3.616271 0.011950
v -6.603722 -3.616271 0.154015
v -6.586772 -3.616271 0.024985
v -6.586772 -3.616271 0.140980
v -6.573720 -3.616271 0.041972
v -6.573720 -3.616271 0.123993
v -6.565521 -3.616271 0.061754
v -6.565521 -3.616271 0.104211
v -6.562722 -3.616271 0.082982
v -6.644723 -3.616271 0.000961
v -6.665974 -3.616271 0.162208
v -6.685773 -3.616271 0.154015
v -6.702725 -3.616271 0.140980
v -6.702725 -3.944322 0.140980
v -6.787576 -3.944322 0.162208
v -6.808776 -3.616271 0.165003
v -6.787576 -3.616271 0.162208
v -6.787576 -3.616271 0.003756
v -6.767777 -3.616271 0.011950
v -6.767777 -3.616271 0.154015
v -6.750775 -3.616271 0.024985
v -6.750775 -3.616271 0.140980
v -6.737776 -3.616271 0.041972
v -6.737776 -3.616271 0.123993
v -6.729577 -3.616271 0.061754
v -6.729577 -3.616271 0.104211
v -6.726775 -3.616271 0.082982
v -6.729577 -3.944322 0.061754
v -6.726775 -3.944322 0.082982
v -6.723976 -3.616271 0.104211
v -6.723976 -3.616271 0.061754
v -6.715774 -3.616271 0.041972
v -6.715774 -3.616271 0.123993
v -6.702725 -3.616271 0.024985
v -6.685773 -3.616271 0.011950
v -6.665974 -3.616271 0.003756
v -6.702725 -3.944322 0.024985
v -6.715774 -3.944322 0.041972
v -6.723976 -3.944322 0.061754
v -6.737776 -3.944322 0.041972
v -6.750775 -3.944322 0.024985
v -6.767777 -3.944322 0.011950
v -6.787576 -3.944322 0.003756
v -6.808776 -3.616271 0.000961
v -6.830027 -3.616271 0.162208
v -6.849828 -3.616271 0.154015
v -6.866778 -3.616271 0.140980
v -6.879829 -3.616271 0.123993
v -6.888029 -3.616271 0.104211
v -6.890830 -3.616271 0.082982
v -6.888029 -3.616271 0.061754
v -6.879829 -3.616271 0.041972
v -6.866778 -3.616271 0.024985
v -6.849828 -3.616271 0.011950
v -6.830027 -3.616271 0.003756
v -6.715774 -3.944322 0.123993
v -6.767777 -3.944322 0.154015
v -6.750775 -3.944322 0.140980
v -6.737776 -3.944322 0.123993
v -6.729577 -3.944322 0.104211
v -6.723976 -3.944322 0.104211
vt 1.531060 0.605133
vt 1.523770 0.612423
vt 0.656168 0.605133
vt 1.531060 1.143920
vt 0.007291 0.605133
vt 0.000000 1.143920
vt 0.000000 0.605133
vt 0.007291 1.143920
vt -1.531060 0.605133
vt -1.523770 0.612423
vt -1.531060 1.143920
vt -0.663459 0.612423
vt -0.656168 0.605133
vt -0.656168 1.143920
vt -0.007291 1.143920
vt -0.007291 0.605133
vt 0.663459 0.612423
vt 0.656168 1.143920
vt 1.523770 1.136630
vt 0.663459 1.136630
vt -0.663459 1.136630
vt -1.523770 1.136630
vt 1.161340 0.864146
vt 1.161340 0.696459
vt 1.432660 0.696459
vt 1.432660 0.864146
vt 1.161340 0.000000
vt 1.432660 -0.014581
vt 1.432660 0.000000
vt 1.161340 -0.014581
vt 0.000000 0.864146
vt 0.014581 0.696459
vt 0.014581 0.864146
vt 0.000000 0.696459
vt -1.175210 -0.006107
vt -1.161340 0.000000
vt -1.432660 0.000000
vt -1.161340 -0.014581
vt -1.175210 -0.009752
vt -1.432660 -0.014581
vt -1.182500 -0.009752
vt -1.175210 0.711040
vt -1.182500 0.696459
vt -1.175210 0.696459
vt -1.182500 0.711040
vt -1.182500 -0.006107
vt -0.009752 0.711040
vt -0.006107 0.696459
vt -0.006107 0.711040
vt -0.009752 0.696459
vt 1.175210 0.696459
vt 1.182500 0.711040
vt 1.175210 0.711040
vt 1.182500 0.696459
vt -1.189790 -0.006107
vt -1.197080 -0.006107
vt -1.204370 -0.006107
vt -1.211660 -0.006107
vt -1.233530 -0.006107
vt -1.240820 -0.006107
vt -1.243310 -0.008772
vt -1.390700 -0.003645
vt -1.391640 -0.003770
vt -1.392520 -0.004134
vt -1.397990 -0.003645
vt -1.398930 -0.003770
vt -1.399810 -0.004134
vt -1.400560 -0.004713
vt -1.401140 -0.005468
vt -1.401510 -0.006347
vt -1.401630 -0.007291
vt -1.401510 -0.008234
vt -1.401140 -0.009113
vt -1.400560 -0.009868
vt -1.399810 -0.010448
vt -1.398930 -0.010812
vt -1.397990 -0.010936
vt -1.392520 -0.010448
vt -1.391640 -0.010812
vt -1.390700 -0.010936
vt -1.230820 -0.008537
vt -1.211660 -0.009752
vt -1.204370 -0.009752
vt -1.197080 -0.009752
vt -1.189790 -0.009752
vt 0.009752 0.696459
vt 0.006107 0.711040
vt 0.006107 0.696459
vt 0.009752 0.711040
vt 0.008475 0.696459
vt 0.004829 0.711040
vt 0.004829 0.696459
vt 0.008475 0.711040
vt 1.204370 0.696459
vt 1.211660 0.711040
vt 1.204370 0.711040
vt 1.211660 0.696459
vt 0.024334 0.696459
vt 0.020688 0.711040
vt 0.020688 0.696459
vt 0.024334 0.711040
vt 0.023056 0.696459
vt 0.019411 0.711040
vt 0.019411 0.696459
vt 0.023056 0.711040
vt 1.233530 0.696459
vt 1.240820 0.711040
vt 1.233530 0.711040
vt 1.240820 0.696459
vt 0.038915 0.696459
vt 0.035270 0.711040
vt 0.035270 0.696459
vt 0.038915 0.711040
vt 0.915268 0.711040
vt 0.911623 0.696459
vt 0.915268 0.696459
vt 0.911623 0.711040
vt 0.854584 0.696459
vt 0.850939 0.711040
vt 0.850939 0.696459
vt 0.854584 0.711040
vt -1.243250 0.696459
vt -1.230760 0.711040
vt -1.243250 0.711040
vt -1.230760 0.696459
vt -1.389750 -0.010812
vt -1.388870 -0.010448
vt -1.388120 -0.009868
vt -1.387540 -0.009113
vt -1.387180 -0.008234
vt -1.387050 -0.007291
vt -1.387180 -0.006347
vt -1.387540 -0.005468
vt -1.388120 -0.004713
vt -1.388870 -0.004134
vt -1.389750 -0.003770
vt 1.378320 0.711040
vt 1.377370 0.696459
vt 1.378320 0.696459
vt 1.377370 0.711040
vt -0.189227 0.711040
vt -0.188275 0.696459
vt -0.188275 0.711040
vt -0.189227 0.696459
vt -0.539408 0.711040
vt -0.538456 0.696459
vt -0.538456 0.711040
vt -0.539408 0.696459
vt -0.852862 0.711040
vt -0.851911 0.696459
vt -0.851911 0.711040
vt -0.852862 0.696459
vt -1.107280 0.711040
vt -1.108230 0.696459
vt -1.107280 0.696459
vt -1.108230 0.711040
vt -1.287150 0.711040
vt -1.288100 0.696459
vt -1.287150 0.696459
vt -1.288100 0.711040
vt -1.379270 0.711040
vt -1.380230 0.696459
vt -1.379270 0.696459
vt -1.380230 0.711040
vt 1.379270 0.696459
vt 1.380230 0.711040
vt 1.379270 0.711040
vt 1.380230 0.696459
vt 1.287150 0.696459
vt 1.288100 0.711040
vt 1.287150 0.711040
vt 1.288100 0.696459
vt 1.107280 0.696459
vt 1.108230 0.711040
vt 1.107280 0.711040
vt 1.108230 0.696459
vt -1.397040 -0.003770
vt -1.393270 -0.004713
vt 1.385550 0.711040
vt 1.384600 0.696459
vt 1.385550 0.696459
vt 1.384600 0.711040
vt -1.397040 -0.010812
vt -1.396160 -0.010448
vt -1.396160 -0.004134
vt -1.395410 -0.009868
vt -1.395410 -0.004713
vt -1.394830 -0.009113
vt -1.394830 -0.005468
vt -1.394470 -0.008234
vt -1.394470 -0.006347
vt -1.394340 -0.007291
vt 0.189227 0.711040
vt 0.190178 0.696459
vt 0.190178 0.711040
vt 0.189227 0.696459
vt 0.188275 0.711040
vt -1.394220 -0.008234
vt -1.394220 -0.006347
vt -1.393850 -0.009113
vt -1.393850 -0.005468
vt -1.393270 -0.009868
vt -1.378320 0.696459
vt -1.377370 0.711040
vt -1.378320 0.711040
vt -1.377370 0.696459
vt -1.281570 0.711040
vt -1.282520 0.696459
vt -1.281570 0.696459
vt -1.282520 0.711040
vt -1.098400 0.711040
vt -1.099350 0.696459
vt -1.098400 0.696459
vt -1.099350 0.711040
vt -0.841294 0.711040
vt -0.840342 0.696459
vt -0.840342 0.711040
vt -0.841294 0.696459
vt -0.525937 0.711040
vt -0.524985 0.696459
vt -0.524985 0.711040
vt -0.525937 0.696459
vt -1.386500 0.711040
vt -1.387450 0.696459
vt -1.386500 0.696459
vt -1.387450 0.711040
vt 1.386500 0.696459
vt 1.387450 0.711040
vt 1.386500 0.711040
vt 1.387450 0.696459
vt 1.293890 0.696459
vt 1.294840 0.711040
vt 1.293890 0.711040
vt 1.294840 0.696459
vt 1.113060 0.696459
vt 1.114010 0.711040
vt 1.113060 0.711040
vt 1.114010 0.696459
vt 0.857301 0.696459
vt 0.856349 0.711040
vt 0.856349 0.696459
vt 0.857301 0.711040
vt 0.542198 0.696459
vt 0.541247 0.711040
vt 0.541247 0.696459
vt 0.542198 0.711040
vt -0.174770 0.696459
vt -0.175721 0.711040
vt -0.175721 0.696459
vt -0.174770 0.711040
vt -0.527775 0.696459
vt -0.528727 0.711040
vt -0.528727 0.696459
vt -0.527775 0.711040
vt -0.844781 0.696459
vt -0.845732 0.711040
vt -0.845732 0.696459
vt -0.844781 0.711040
vt -1.105140 0.696459
vt -1.104180 0.711040
vt -1.105140 0.711040
vt -1.104180 0.696459
vt -1.289260 0.696459
vt -1.288310 0.711040
vt -1.289260 0.711040
vt -1.288310 0.696459
vt -1.385550 0.696459
vt -1.384600 0.711040
vt -1.385550 0.711040
vt -1.384600 0.696459
vt -1.294840 0.696459
vt -1.293890 0.711040
vt -1.294840 0.711040
vt -1.293890 0.696459
vt -1.114010 0.696459
vt -1.113060 0.711040
vt -1.114010 0.711040
vt -1.113060 0.696459
vt -0.856349 0.696459
vt -0.857301 0.711040
vt -0.857301 0.696459
vt -0.856349 0.711040
vt -0.541247 0.696459
vt -0.542198 0.711040
vt -0.542198 0.696459
vt -0.541247 0.711040
vt 0.851911 0.711040
vt 0.852862 0.696459
vt 0.852862 0.711040
vt 0.851911 0.696459
vt 1.289260 0.711040
vt 1.288310 0.696459
vt 1.289260 0.696459
vt 1.288310 0.711040
vt 1.105140 0.711040
vt 1.104180 0.696459
vt 1.105140 0.696459
vt 1.104180 0.711040
vt 0.844781 0.711040
vt 0.845732 0.696459
vt 0.845732 0.711040
vt 0.844781 0.696459
vt 0.527775 0.711040
vt 0.528727 0.696459
vt 0.528727 0.711040
vt 0.527775 0.696459
vt 0.539408 0.696459
vt 0.538456 0.711040
vt 0.538456 0.696459
vt 0.539408 0.711040
vt 0.188275 0.696459
vt 0.174770 0.696459
vt 0.173818 0.711040
vt 0.173818 0.696459
vt 0.174770 0.711040
vt 0.525937 0.696459
vt 0.524985 0.711040
vt 0.524985 0.696459
vt 0.525937 0.711040
vt 0.841294 0.696459
vt 0.840342 0.711040
vt 0.840342 0.696459
vt 0.841294 0.711040
vt 1.098400 0.696459
vt 1.099350 0.711040
vt 1.098400 0.711040
vt 1.099350 0.696459
vt 1.281570 0.696459
vt 1.282520 0.711040
vt 1.281570 0.711040
vt 1.282520 0.696459
vt -0.014581 0.864146
vt -0.014581 0.696459
vt 0.656168 0.007291
vt 1.531060 0.000000
vt 1.531060 0.007291
vt 0.656168 0.000000
vt -1.531060 0.007291
vt -0.656168 0.000000
vt -0.656168 0.007291
vt -1.531060 0.000000
vt 82.283501 0.000000
vt 35.826801 0.393701
vt 35.826801 0.000000
vt 82.283501 0.393701
vt 0.000000 33.070900
vt -0.393701 61.377998
vt -0.393701 33.070900
vt 0.000000 61.377998
vt 0.393701 33.070900
vt 0.393701 61.377998
vt 82.283501 61.377998
vt 35.826801 33.070900
vt 82.283501 33.070900
vt 35.826801 61.377998
vt -82.283501 0.393701
vt -35.826801 0.000000
vt -35.826801 0.393701
vt -82.283501 0.000000
vn 0.000000 -0.000000 -1.000000
vn -1.000000 0.000000 0.000000
vn -0.000000 0.000000 1.000000
vn 1.000000 -0.000000 0.000000
vn 0.000000 1.000000 0.000000
vn 0.000000 -1.000000 0.000000
vn 0.000000 -1.000000 -0.000100
vn 0.000000 -1.000000 0.000200
vn 0.000000 -1.000000 0.000100
vn -0.000000 -1.000000 0.000400
vn -0.000000 -1.000000 -0.000400
vn -0.000000 -1.000000 0.000600
vn 0.000000 -1.000000 -0.000300
vn -0.357000 -0.000000 -0.934100
vn -0.666600 0.000000 -0.745500
vn -0.666900 0.000000 -0.745100
vn 0.398600 -0.000000 -0.917100
vn 0.731200 0.000000 -0.682200
vn -0.018800 0.000000 0.999800
vn 0.000000 -1.000000 0.001200
vn -0.000000 -1.000000 0.000300
vn 0.000000 -1.000000 -0.001000
vn -0.000200 0.000000 -1.000000
vn -0.258700 0.000000 -0.965900
vn -0.965900 -0.000000 0.259000
vn -0.865800 -0.000000 0.500400
vn -0.707300 -0.000000 0.706900
vn -0.500300 0.000000 0.865800
vn -0.258700 0.000000 0.965900
vn 0.000200 0.000000 1.000000
vn -0.000200 0.000000 1.000000
vn 0.258600 -0.000000 -0.966000
vn 0.500300 -0.000000 -0.865900
vn 0.500000 0.000000 -0.866000
vn 0.707300 -0.000000 -0.706900
vn -0.258800 0.000000 -0.965900
vn 0.991400 0.000000 -0.130500
vn 0.258800 0.000000 0.965900
vn 0.991400 -0.000000 -0.130700
vn 0.991400 0.000000 -0.130800
vn 0.965900 0.000000 -0.259100
vn 0.259000 0.000000 0.965900
vn 0.258600 0.000000 0.966000
vn 0.500300 0.000000 0.865900
vn 0.707300 0.000000 0.706900
vn 0.865800 -0.000000 0.500400
vn 0.923900 -0.000000 0.382700
vn -0.000000 -1.000000 -0.000600
vn 0.000000 -1.000000 0.000500
vn -0.258800 -0.000000 0.965900
vn 0.500300 0.000000 -0.865800
vn 0.865800 -0.000000 -0.500400
vn 0.966000 0.000000 -0.258700
vn 0.965900 -0.000000 0.259100
vn 0.866000 -0.000000 0.500100
vn 0.500300 0.000000 0.865800
vn -0.499700 0.000000 0.866200
vn -0.707400 0.000000 0.706800
vn -0.866100 -0.000000 0.499800
vn -0.866300 0.000000 0.499500
vn -0.499700 -0.000000 -0.866200
vn -0.707200 -0.000000 -0.707000
vn -0.866100 -0.000000 -0.499800
vn -0.866000 0.000000 -0.500000
vn -0.923800 -0.000000 -0.382900
vn -0.923900 0.000000 -0.382600
vn -0.965900 0.000000 -0.259000
vn -0.866000 -0.000000 -0.500100
vn -0.865800 0.000000 -0.500400
vn -0.707300 0.000000 -0.706900
vn -0.500300 0.000000 -0.865800
usemtl Metal_Aluminum_Anodized
s 1
f 1/1/1 2/2/1 3/3/1
f 2/2/1 1/1/1 4/4/1
f 5/5/2 4/6/2 1/7/2
f 4/6/2 5/5/2 6/8/2
f 5/9/3 7/10/3 6/11/3
f 7/10/3 5/9/3 8/12/3
f 9/13/3 8/12/3 5/9/3
f 8/12/3 9/13/3 10/14/3
f 3/7/4 10/15/4 9/16/4
f 10/15/4 3/7/4 11/6/4
f 3/3/1 12/17/1 11/18/1
f 12/17/1 3/3/1 2/2/1
f 2/2/1 4/4/1 14/19/1
f 14/19/1 4/4/1 15/20/1
f 11/18/1 15/20/1 4/4/1
f 11/18/1 12/17/1 15/20/1
f 8/12/3 10/14/3 16/21/3
f 16/21/3 10/14/3 13/22/3
f 6/11/3 13/22/3 10/14/3
f 6/11/3 7/10/3 13/22/3
f 15/20/1 17/23/1 14/19/1
f 15/20/1 18/24/1 17/23/1
f 12/17/1 18/24/1 15/20/1
f 18/24/1 12/17/1 19/25/1
f 2/2/1 19/25/1 12/17/1
f 19/25/1 2/2/1 14/19/1
f 19/25/1 14/19/1 20/26/1
f 20/26/1 14/19/1 17/23/1
f 17/27/5 21/28/5 20/29/5
f 21/28/5 17/27/5 22/30/5
f 17/31/4 23/32/4 22/33/4
f 23/32/4 17/31/4 18/34/4
f 18/24/1 20/26/1 17/23/1
f 20/26/1 18/24/1 19/25/1
f 24/35/6 18/36/6 19/37/6
f 18/36/6 24/35/6 23/38/6
f 25/39/6 23/38/6 24/35/6
f 23/38/6 25/39/6 26/40/6
f 26/40/6 25/39/6 27/41/7
f 28/42/3 27/43/3 25/44/3
f 27/43/3 28/42/3 29/45/3
f 28/39/6 30/46/6 29/41/6
f 30/46/6 28/39/6 31/35/6
f 28/47/2 24/48/2 31/49/2
f 24/48/2 28/47/2 25/50/2
f 24/51/1 30/52/1 31/53/1
f 30/52/1 24/51/1 32/54/1
f 24/35/8 19/37/6 32/46/9
f 32/46/9 19/37/6 33/55/6
f 33/55/6 19/37/6 34/56/6
f 34/56/6 19/37/6 35/57/7
f 35/57/7 19/37/6 36/58/6
f 36/58/6 19/37/6 37/59/10
f 37/59/10 19/37/6 38/60/6
f 38/60/6 19/37/6 39/61/11
f 39/61/11 19/37/6 40/62/6
f 40/62/6 19/37/6 41/63/12
f 41/63/12 19/37/6 42/64/6
f 42/64/6 19/37/6 43/65/12
f 43/65/12 19/37/6 44/66/13
f 44/66/13 19/37/6 45/67/6
f 45/67/6 19/37/6 46/68/6
f 46/68/6 19/37/6 47/69/6
f 47/69/6 19/37/6 48/70/6
f 48/70/6 19/37/6 49/71/6
f 26/40/6 49/71/6 19/37/6
f 26/40/6 50/72/6 49/71/6
f 26/40/6 51/73/6 50/72/6
f 26/40/6 52/74/6 51/73/6
f 26/40/6 53/75/6 52/74/6
f 26/40/6 54/76/6 53/75/6
f 26/40/6 55/77/13 54/76/6
f 26/40/6 56/78/6 55/77/13
f 26/40/6 57/79/11 56/78/6
f 26/40/6 58/80/6 57/79/11
f 26/40/6 39/61/11 58/80/6
f 26/40/6 59/81/6 39/61/11
f 26/40/6 60/82/6 59/81/6
f 26/40/6 61/83/8 60/82/6
f 26/40/6 62/84/6 61/83/8
f 26/40/6 63/85/10 62/84/6
f 26/40/6 27/41/7 63/85/10
f 63/85/10 27/41/7 33/55/6
f 32/46/9 33/55/6 27/41/7
f 27/86/4 30/87/4 32/88/4
f 30/87/4 27/86/4 29/89/4
f 33/90/2 64/91/2 63/92/2
f 64/91/2 33/90/2 65/93/2
f 33/94/1 66/95/1 65/96/1
f 66/95/1 33/94/1 34/97/1
f 62/98/4 66/99/4 34/100/4
f 66/99/4 62/98/4 67/101/4
f 62/43/3 64/42/3 67/45/3
f 64/42/3 62/43/3 63/44/3
f 64/39/6 66/46/6 67/41/6
f 66/46/6 64/39/6 65/35/6
f 34/56/6 35/57/7 62/84/6
f 61/83/8 62/84/6 35/57/7
f 35/102/2 68/103/2 61/104/2
f 68/103/2 35/102/2 69/105/2
f 35/106/1 70/107/1 69/108/1
f 70/107/1 35/106/1 36/109/1
f 60/110/4 70/111/4 36/112/4
f 70/111/4 60/110/4 71/113/4
f 60/43/3 68/42/3 71/45/3
f 68/42/3 60/43/3 61/44/3
f 68/39/6 70/46/6 71/41/6
f 70/46/6 68/39/6 69/35/6
f 36/58/6 37/59/10 60/82/6
f 60/82/6 37/59/10 59/81/6
f 72/114/14 59/115/15 37/116/14
f 59/115/15 72/114/14 73/117/16
f 72/59/6 74/61/6 73/81/6
f 74/61/6 72/59/6 75/60/6
f 37/106/14 75/107/17 72/108/14
f 75/107/17 37/106/14 38/109/17
f 39/118/18 75/119/17 38/120/17
f 75/119/17 39/118/18 74/121/18
f 39/122/19 73/123/19 74/124/19
f 73/123/19 39/122/19 59/125/19
f 58/80/6 39/61/11 76/126/20
f 76/126/20 39/61/11 77/127/6
f 77/127/6 39/61/11 78/128/6
f 78/128/6 39/61/11 79/129/6
f 79/129/6 39/61/11 80/130/6
f 80/130/6 39/61/11 81/131/6
f 39/61/11 82/132/6 81/131/6
f 39/61/11 83/133/6 82/132/6
f 39/61/11 84/134/11 83/133/6
f 39/61/11 85/135/21 84/134/11
f 39/61/11 86/136/22 85/135/21
f 39/61/11 40/62/6 86/136/22
f 87/137/23 86/138/24 40/139/23
f 86/138/24 87/137/23 88/140/24
f 89/126/6 88/136/6 87/62/6
f 90/127/6 88/136/6 89/126/6
f 90/127/6 91/135/6 88/136/6
f 92/128/6 91/135/6 90/127/6
f 92/128/6 93/134/6 91/135/6
f 94/129/6 93/134/6 92/128/6
f 94/129/6 95/133/6 93/134/6
f 96/130/6 95/133/6 94/129/6
f 96/130/6 97/132/6 95/133/6
f 97/132/6 96/130/6 98/131/6
f 96/141/25 81/142/2 98/143/2
f 81/142/2 96/141/25 80/144/25
f 94/145/26 80/146/25 96/147/25
f 80/146/25 94/145/26 79/148/26
f 92/149/27 79/150/26 94/151/26
f 79/150/26 92/149/27 78/152/27
f 92/153/27 77/154/28 78/155/27
f 77/154/28 92/153/27 90/156/28
f 90/157/28 76/158/29 77/159/28
f 76/158/29 90/157/28 89/160/29
f 89/161/29 58/162/30 76/163/29
f 58/162/30 89/161/29 99/164/31
f 89/126/6 87/62/6 99/80/6
f 99/80/6 87/62/6 100/63/6
f 40/165/23 100/166/32 87/167/23
f 100/166/32 40/165/23 41/168/32
f 41/169/32 101/170/33 100/171/32
f 101/170/33 41/169/32 42/172/34
f 42/173/34 102/174/35 101/175/33
f 102/174/35 42/173/34 103/176/35
f 42/64/6 104/177/22 103/178/6
f 42/64/6 43/65/12 104/177/22
f 105/179/23 104/180/36 43/181/23
f 104/180/36 105/179/23 106/182/36
f 107/183/6 106/177/6 105/65/6
f 108/184/6 106/177/6 107/183/6
f 108/184/6 109/185/6 106/177/6
f 110/186/6 109/185/6 108/184/6
f 110/186/6 111/187/6 109/185/6
f 112/188/6 111/187/6 110/186/6
f 112/188/6 113/189/6 111/187/6
f 114/190/6 113/189/6 112/188/6
f 114/190/6 115/191/6 113/189/6
f 115/191/6 114/190/6 116/192/6
f 116/193/37 117/194/38 114/195/38
f 117/194/38 116/193/39 118/196/40
f 118/196/40 116/193/39 119/197/41
f 120/198/6 119/199/6 116/192/6
f 121/200/6 119/199/6 120/198/6
f 121/200/6 122/201/6 119/199/6
f 123/202/6 122/201/6 121/200/6
f 123/202/6 102/178/6 122/201/6
f 124/78/6 102/178/6 123/202/6
f 124/78/6 101/64/6 102/178/6
f 125/79/6 101/64/6 124/78/6
f 125/79/6 100/63/6 101/64/6
f 99/80/6 100/63/6 125/79/6
f 57/203/42 99/204/31 125/205/43
f 99/204/31 57/203/42 58/206/30
f 125/207/43 56/208/44 57/209/42
f 56/208/44 125/207/43 124/210/44
f 124/211/44 126/212/45 56/213/44
f 126/212/45 124/211/44 123/214/45
f 121/215/46 126/216/45 123/217/45
f 126/216/45 121/215/46 127/218/46
f 120/219/47 127/220/46 121/221/46
f 127/220/46 120/219/47 128/222/47
f 129/188/6 127/200/6 128/198/6
f 130/186/48 127/200/6 129/188/6
f 131/184/49 127/200/6 130/186/48
f 131/184/49 126/202/6 127/200/6
f 132/183/6 126/202/6 131/184/49
f 132/183/6 56/78/6 126/202/6
f 55/77/13 56/78/6 132/183/6
f 107/223/50 55/224/30 132/225/50
f 55/224/30 107/223/50 133/226/31
f 107/183/6 105/65/6 133/77/6
f 133/77/6 105/65/6 134/66/6
f 43/227/23 134/228/32 105/229/23
f 134/228/32 43/227/23 44/230/32
f 44/231/32 135/232/51 134/233/32
f 135/232/51 44/231/32 45/234/51
f 45/235/51 136/236/35 135/237/51
f 136/236/35 45/235/51 46/238/35
f 47/239/52 136/240/35 46/241/35
f 136/240/35 47/239/52 137/242/52
f 48/243/41 137/244/52 47/245/52
f 137/244/52 48/243/41 138/246/53
f 49/194/4 138/193/53 48/196/41
f 138/193/53 49/194/4 139/195/4
f 50/247/54 139/248/4 49/249/4
f 139/248/4 50/247/54 140/250/54
f 51/251/55 140/252/54 50/253/54
f 140/252/54 51/251/55 141/254/46
f 52/255/45 141/256/46 51/257/55
f 141/256/46 52/255/45 142/258/45
f 52/259/45 143/260/56 142/261/45
f 143/260/56 52/259/45 53/262/56
f 53/263/56 144/264/43 143/265/56
f 144/264/43 53/263/56 54/266/43
f 54/267/43 133/268/31 144/269/43
f 133/268/31 54/267/43 55/270/30
f 133/77/6 134/66/6 144/76/6
f 144/76/6 134/66/6 135/67/6
f 144/76/6 135/67/6 143/75/6
f 143/75/6 135/67/6 136/68/6
f 143/75/6 136/68/6 142/74/6
f 142/74/6 136/68/6 137/69/6
f 142/74/6 137/69/6 141/73/6
f 141/73/6 137/69/6 138/70/6
f 141/73/6 138/70/6 140/72/6
f 140/72/6 138/70/6 139/71/6
f 132/271/50 108/272/57 107/273/50
f 108/272/57 132/271/50 131/274/57
f 131/275/57 110/276/58 108/277/57
f 110/276/58 131/275/57 130/278/58
f 129/279/59 110/280/58 130/281/58
f 110/280/58 129/279/59 112/282/60
f 117/283/38 112/284/60 129/285/59
f 112/284/60 117/283/38 114/286/38
f 129/188/6 128/198/6 117/190/6
f 117/190/6 128/198/6 118/192/6
f 102/287/35 145/288/52 122/289/52
f 145/288/52 102/287/35 103/290/35
f 103/178/6 146/185/11 145/201/6
f 103/178/6 104/177/22 146/185/11
f 106/291/36 146/292/61 104/293/36
f 146/292/61 106/291/36 109/294/61
f 109/295/61 147/296/62 146/297/61
f 147/296/62 109/295/61 111/298/62
f 113/299/63 147/300/62 111/301/62
f 147/300/62 113/299/63 148/302/64
f 115/303/65 148/304/64 113/305/63
f 148/304/64 115/303/65 149/306/66
f 150/199/6 148/189/6 149/191/6
f 145/201/6 148/189/6 150/199/6
f 145/201/6 147/187/21 148/189/6
f 145/201/6 146/185/11 147/187/21
f 150/307/41 122/308/52 145/309/52
f 122/308/52 150/307/41 119/310/41
f 118/196/40 119/197/41 150/311/41
f 150/199/6 149/191/6 118/192/6
f 82/312/67 98/313/2 81/314/2
f 98/313/2 82/312/67 97/315/67
f 83/316/68 97/317/67 82/318/67
f 97/317/67 83/316/68 95/319/69
f 84/320/70 95/321/69 83/322/68
f 95/321/69 84/320/70 93/323/70
f 84/324/70 91/325/71 93/326/70
f 91/325/71 84/324/70 85/327/71
f 85/328/71 88/329/24 91/330/71
f 88/329/24 85/328/71 86/331/24
f 19/34/2 21/332/2 26/333/2
f 21/332/2 19/34/2 20/31/2
f 21/26/1 23/24/1 26/25/1
f 23/24/1 21/26/1 22/23/1
f 10/334/5 4/335/5 6/336/5
f 4/335/5 10/334/5 11/337/5
f 5/338/6 3/339/6 9/340/6
f 3/339/6 5/338/6 1/341/6
usemtl FrontColor
f 2/342/5 8/343/5 12/344/5
f 8/343/5 2/342/5 7/345/5
f 2/346/4 13/347/4 7/348/4
f 13/347/4 2/346/4 14/349/4
f 8/350/2 15/349/2 12/346/2
f 15/349/2 8/350/2 16/351/2
f 13/352/1 8/353/1 7/354/1
f 8/353/1 13/352/1 16/355/1
f 13/356/6 15/357/6 16/358/6
f 15/357/6 13/356/6 14/359/6
o Mesh2_Model
v 9.700449 5.959479 0.466617
v -9.656549 5.959477 0.466619
v 9.700451 -5.835122 0.466615
v -9.656548 -5.835124 0.466617
vt 0.000000 0.000000
vt 1.000000 0.000000
vt 0.000000 1.000000
vt 1.000000 1.000000
vn 0.000000 -0.000000 1.000000
usemtl hubsmart
s 1
f 151/360/72 152/361/72 153/362/72
f 154/363/72 153/362/72 152/361/72
