# Blender v2.76 (sub 0) OBJ File: ''
# www.blender.org
mtllib 2.mtl
o Mesh1_Model
v -0.490148 -0.299958 0.012351
v -0.481948 -0.291756 0.012351
v 0.494128 -0.299958 0.012351
v -0.490148 0.306177 0.012352
v -0.490148 -0.299958 0.020553
v -0.490148 0.306177 0.020554
v -0.481948 -0.291756 0.020553
v 0.485927 -0.291756 0.020553
v 0.494128 -0.299958 0.020553
v 0.494128 0.306177 0.020554
v 0.494128 0.306177 0.012352
v 0.485927 -0.291756 0.012351
v -0.481948 0.297974 0.012351
v 0.485927 0.297974 0.012352
v 0.485927 0.297974 0.020554
v -0.481948 0.297974 0.020554
v -0.074199 -0.008569 0.012351
v -0.074199 -0.197216 0.012351
v -0.379447 -0.197216 0.012351
v -0.379447 -0.008569 0.012351
v -0.379447 -0.008568 -0.004053
v -0.074199 -0.008568 -0.004053
v -0.074199 -0.197216 -0.004053
v -0.089805 -0.197216 0.005481
v -0.089805 -0.197216 0.001380
v -0.379447 -0.197216 -0.004053
v -0.098008 -0.197216 0.001380
v -0.089805 -0.180814 0.001380
v -0.098008 -0.180814 0.001380
v -0.098008 -0.180814 0.005481
v -0.089805 -0.180814 0.005481
v -0.098008 -0.197216 0.005481
v -0.106208 -0.197216 0.005481
v -0.114410 -0.197216 0.005481
v -0.122613 -0.197216 0.005481
v -0.130816 -0.197216 0.005481
v -0.155421 -0.197216 0.005481
v -0.163624 -0.197216 0.005481
v -0.166422 -0.197216 0.002482
v -0.332236 -0.197216 0.008250
v -0.333299 -0.197216 0.008110
v -0.334289 -0.197216 0.007700
v -0.340439 -0.197216 0.008250
v -0.341502 -0.197216 0.008110
v -0.342492 -0.197216 0.007700
v -0.343339 -0.197216 0.007049
v -0.343991 -0.197216 0.006199
v -0.344402 -0.197216 0.005210
v -0.344541 -0.197216 0.004149
v -0.344402 -0.197216 0.003087
v -0.343991 -0.197216 0.002098
v -0.343339 -0.197216 0.001249
v -0.342492 -0.197216 0.000597
v -0.341502 -0.197216 0.000188
v -0.340439 -0.197216 0.000048
v -0.334289 -0.197216 0.000597
v -0.333299 -0.197216 0.000188
v -0.332236 -0.197216 0.000048
v -0.152367 -0.197216 0.002747
v -0.130816 -0.197216 0.001380
v -0.122613 -0.197216 0.001380
v -0.114410 -0.197216 0.001380
v -0.106208 -0.197216 0.001380
v -0.106208 -0.180814 0.001380
v -0.106208 -0.180814 0.005481
v -0.114410 -0.180814 0.005481
v -0.114410 -0.180814 0.001380
v -0.122613 -0.180814 0.001380
v -0.122613 -0.180814 0.005481
v -0.130816 -0.180814 0.005481
v -0.130816 -0.180814 0.001380
v -0.155421 -0.180814 0.005481
v -0.152367 -0.180814 0.002747
v -0.166422 -0.180814 0.002482
v -0.163624 -0.180814 0.005481
v -0.331176 -0.197216 0.000188
v -0.330186 -0.197216 0.000597
v -0.329338 -0.197216 0.001249
v -0.328686 -0.197216 0.002098
v -0.328276 -0.197216 0.003087
v -0.328136 -0.197216 0.004149
v -0.328276 -0.197216 0.005210
v -0.328686 -0.197216 0.006199
v -0.329338 -0.197216 0.007049
v -0.330186 -0.197216 0.007700
v -0.331176 -0.197216 0.008110
v -0.332236 -0.180814 0.008250
v -0.331176 -0.180814 0.008110
v -0.331176 -0.180814 0.000188
v -0.330186 -0.180814 0.000597
v -0.330186 -0.180814 0.007700
v -0.329338 -0.180814 0.001249
v -0.329338 -0.180814 0.007049
v -0.328686 -0.180814 0.002098
v -0.328686 -0.180814 0.006199
v -0.328276 -0.180814 0.003087
v -0.328276 -0.180814 0.005210
v -0.328136 -0.180814 0.004149
v -0.332236 -0.180814 0.000048
v -0.333299 -0.180814 0.008110
v -0.334289 -0.180814 0.007700
v -0.335137 -0.180814 0.007049
v -0.335137 -0.197216 0.007049
v -0.339379 -0.197216 0.008110
v -0.340439 -0.180814 0.008250
v -0.339379 -0.180814 0.008110
v -0.339379 -0.180814 0.000188
v -0.338389 -0.180814 0.000597
v -0.338389 -0.180814 0.007700
v -0.337539 -0.180814 0.001249
v -0.337539 -0.180814 0.007049
v -0.336889 -0.180814 0.002098
v -0.336889 -0.180814 0.006199
v -0.336479 -0.180814 0.003087
v -0.336479 -0.180814 0.005210
v -0.336339 -0.180814 0.004149
v -0.336479 -0.197216 0.003087
v -0.336339 -0.197216 0.004149
v -0.336199 -0.180814 0.005210
v -0.336199 -0.180814 0.003087
v -0.335788 -0.180814 0.002098
v -0.335788 -0.180814 0.006199
v -0.335137 -0.180814 0.001249
v -0.334289 -0.180814 0.000597
v -0.333299 -0.180814 0.000188
v -0.335137 -0.197216 0.001249
v -0.335788 -0.197216 0.002098
v -0.336199 -0.197216 0.003087
v -0.336889 -0.197216 0.002098
v -0.337539 -0.197216 0.001249
v -0.338389 -0.197216 0.000597
v -0.339379 -0.197216 0.000188
v -0.340439 -0.180814 0.000048
v -0.341502 -0.180814 0.008110
v -0.342492 -0.180814 0.007700
v -0.343339 -0.180814 0.007049
v -0.343991 -0.180814 0.006199
v -0.344402 -0.180814 0.005210
v -0.344541 -0.180814 0.004149
v -0.344402 -0.180814 0.003087
v -0.343991 -0.180814 0.002098
v -0.343339 -0.180814 0.001249
v -0.342492 -0.180814 0.000597
v -0.341502 -0.180814 0.000188
v -0.335788 -0.197216 0.006199
v -0.338389 -0.197216 0.007700
v -0.337539 -0.197216 0.007049
v -0.336889 -0.197216 0.006199
v -0.336479 -0.197216 0.005210
v -0.336199 -0.197216 0.005210
vt 1.531060 0.605133
vt 1.523770 0.612423
vt 0.656168 0.605133
vt 1.531060 1.143920
vt 0.007291 0.605133
vt 0.000000 1.143920
vt 0.000000 0.605133
vt 0.007291 1.143920
vt -1.531060 0.605133
vt -1.523770 0.612423
vt -1.531060 1.143920
vt -0.663459 0.612423
vt -0.656168 0.605133
vt -0.656168 1.143920
vt -0.007291 1.143920
vt -0.007291 0.605133
vt 0.663459 0.612423
vt 0.656168 1.143920
vt 1.523770 1.136630
vt 0.663459 1.136630
vt -0.663459 1.136630
vt -1.523770 1.136630
vt 1.161340 0.864146
vt 1.161340 0.696459
vt 1.432660 0.696459
vt 1.432660 0.864146
vt 1.161340 0.000000
vt 1.432660 -0.014581
vt 1.432660 0.000000
vt 1.161340 -0.014581
vt 0.000000 0.864146
vt 0.014581 0.696459
vt 0.014581 0.864146
vt 0.000000 0.696459
vt -1.175210 -0.006107
vt -1.161340 0.000000
vt -1.432660 0.000000
vt -1.161340 -0.014581
vt -1.175210 -0.009752
vt -1.432660 -0.014581
vt -1.182500 -0.009752
vt -1.175210 0.711040
vt -1.182500 0.696459
vt -1.175210 0.696459
vt -1.182500 0.711040
vt -1.182500 -0.006107
vt -0.009752 0.711040
vt -0.006107 0.696459
vt -0.006107 0.711040
vt -0.009752 0.696459
vt 1.175210 0.696459
vt 1.182500 0.711040
vt 1.175210 0.711040
vt 1.182500 0.696459
vt -1.189790 -0.006107
vt -1.197080 -0.006107
vt -1.204370 -0.006107
vt -1.211660 -0.006107
vt -1.233530 -0.006107
vt -1.240820 -0.006107
vt -1.243310 -0.008772
vt -1.390700 -0.003645
vt -1.391640 -0.003770
vt -1.392520 -0.004134
vt -1.397990 -0.003645
vt -1.398930 -0.003770
vt -1.399810 -0.004134
vt -1.400560 -0.004713
vt -1.401140 -0.005468
vt -1.401510 -0.006347
vt -1.401630 -0.007291
vt -1.401510 -0.008234
vt -1.401140 -0.009113
vt -1.400560 -0.009868
vt -1.399810 -0.010448
vt -1.398930 -0.010812
vt -1.397990 -0.010936
vt -1.392520 -0.010448
vt -1.391640 -0.010812
vt -1.390700 -0.010936
vt -1.230820 -0.008537
vt -1.211660 -0.009752
vt -1.204370 -0.009752
vt -1.197080 -0.009752
vt -1.189790 -0.009752
vt 0.009752 0.696459
vt 0.006107 0.711040
vt 0.006107 0.696459
vt 0.009752 0.711040
vt 0.008475 0.696459
vt 0.004829 0.711040
vt 0.004829 0.696459
vt 0.008475 0.711040
vt 1.204370 0.696459
vt 1.211660 0.711040
vt 1.204370 0.711040
vt 1.211660 0.696459
vt 0.024334 0.696459
vt 0.020688 0.711040
vt 0.020688 0.696459
vt 0.024334 0.711040
vt 0.023056 0.696459
vt 0.019411 0.711040
vt 0.019411 0.696459
vt 0.023056 0.711040
vt 1.233530 0.696459
vt 1.240820 0.711040
vt 1.233530 0.711040
vt 1.240820 0.696459
vt 0.038915 0.696459
vt 0.035270 0.711040
vt 0.035270 0.696459
vt 0.038915 0.711040
vt 0.915268 0.711040
vt 0.911623 0.696459
vt 0.915268 0.696459
vt 0.911623 0.711040
vt 0.854584 0.696459
vt 0.850939 0.711040
vt 0.850939 0.696459
vt 0.854584 0.711040
vt -1.243250 0.696459
vt -1.230760 0.711040
vt -1.243250 0.711040
vt -1.230760 0.696459
vt -1.389750 -0.010812
vt -1.388870 -0.010448
vt -1.388120 -0.009868
vt -1.387540 -0.009113
vt -1.387180 -0.008234
vt -1.387050 -0.007291
vt -1.387180 -0.006347
vt -1.387540 -0.005468
vt -1.388120 -0.004713
vt -1.388870 -0.004134
vt -1.389750 -0.003770
vt 1.378320 0.711040
vt 1.377370 0.696459
vt 1.378320 0.696459
vt 1.377370 0.711040
vt -0.189227 0.711040
vt -0.188275 0.696459
vt -0.188275 0.711040
vt -0.189227 0.696459
vt -0.539408 0.711040
vt -0.538456 0.696459
vt -0.538456 0.711040
vt -0.539408 0.696459
vt -0.852862 0.711040
vt -0.851911 0.696459
vt -0.851911 0.711040
vt -0.852862 0.696459
vt -1.107280 0.711040
vt -1.108230 0.696459
vt -1.107280 0.696459
vt -1.108230 0.711040
vt -1.287150 0.711040
vt -1.288100 0.696459
vt -1.287150 0.696459
vt -1.288100 0.711040
vt -1.379270 0.711040
vt -1.380230 0.696459
vt -1.379270 0.696459
vt -1.380230 0.711040
vt 1.379270 0.696459
vt 1.380230 0.711040
vt 1.379270 0.711040
vt 1.380230 0.696459
vt 1.287150 0.696459
vt 1.288100 0.711040
vt 1.287150 0.711040
vt 1.288100 0.696459
vt 1.107280 0.696459
vt 1.108230 0.711040
vt 1.107280 0.711040
vt 1.108230 0.696459
vt -1.397040 -0.003770
vt -1.393270 -0.004713
vt 1.385550 0.711040
vt 1.384600 0.696459
vt 1.385550 0.696459
vt 1.384600 0.711040
vt -1.397040 -0.010812
vt -1.396160 -0.010448
vt -1.396160 -0.004134
vt -1.395410 -0.009868
vt -1.395410 -0.004713
vt -1.394830 -0.009113
vt -1.394830 -0.005468
vt -1.394470 -0.008234
vt -1.394470 -0.006347
vt -1.394340 -0.007291
vt 0.189227 0.711040
vt 0.190178 0.696459
vt 0.190178 0.711040
vt 0.189227 0.696459
vt 0.188275 0.711040
vt -1.394220 -0.008234
vt -1.394220 -0.006347
vt -1.393850 -0.009113
vt -1.393850 -0.005468
vt -1.393270 -0.009868
vt -1.378320 0.696459
vt -1.377370 0.711040
vt -1.378320 0.711040
vt -1.377370 0.696459
vt -1.281570 0.711040
vt -1.282520 0.696459
vt -1.281570 0.696459
vt -1.282520 0.711040
vt -1.098400 0.711040
vt -1.099350 0.696459
vt -1.098400 0.696459
vt -1.099350 0.711040
vt -0.841294 0.711040
vt -0.840342 0.696459
vt -0.840342 0.711040
vt -0.841294 0.696459
vt -0.525937 0.711040
vt -0.524985 0.696459
vt -0.524985 0.711040
vt -0.525937 0.696459
vt -1.386500 0.711040
vt -1.387450 0.696459
vt -1.386500 0.696459
vt -1.387450 0.711040
vt 1.386500 0.696459
vt 1.387450 0.711040
vt 1.386500 0.711040
vt 1.387450 0.696459
vt 1.293890 0.696459
vt 1.294840 0.711040
vt 1.293890 0.711040
vt 1.294840 0.696459
vt 1.113060 0.696459
vt 1.114010 0.711040
vt 1.113060 0.711040
vt 1.114010 0.696459
vt 0.857301 0.696459
vt 0.856349 0.711040
vt 0.856349 0.696459
vt 0.857301 0.711040
vt 0.542198 0.696459
vt 0.541247 0.711040
vt 0.541247 0.696459
vt 0.542198 0.711040
vt -0.174770 0.696459
vt -0.175721 0.711040
vt -0.175721 0.696459
vt -0.174770 0.711040
vt -0.527775 0.696459
vt -0.528727 0.711040
vt -0.528727 0.696459
vt -0.527775 0.711040
vt -0.844781 0.696459
vt -0.845732 0.711040
vt -0.845732 0.696459
vt -0.844781 0.711040
vt -1.105140 0.696459
vt -1.104180 0.711040
vt -1.105140 0.711040
vt -1.104180 0.696459
vt -1.289260 0.696459
vt -1.288310 0.711040
vt -1.289260 0.711040
vt -1.288310 0.696459
vt -1.385550 0.696459
vt -1.384600 0.711040
vt -1.385550 0.711040
vt -1.384600 0.696459
vt -1.294840 0.696459
vt -1.293890 0.711040
vt -1.294840 0.711040
vt -1.293890 0.696459
vt -1.114010 0.696459
vt -1.113060 0.711040
vt -1.114010 0.711040
vt -1.113060 0.696459
vt -0.856349 0.696459
vt -0.857301 0.711040
vt -0.857301 0.696459
vt -0.856349 0.711040
vt -0.541247 0.696459
vt -0.542198 0.711040
vt -0.542198 0.696459
vt -0.541247 0.711040
vt 0.851911 0.711040
vt 0.852862 0.696459
vt 0.852862 0.711040
vt 0.851911 0.696459
vt 1.289260 0.711040
vt 1.288310 0.696459
vt 1.289260 0.696459
vt 1.288310 0.711040
vt 1.105140 0.711040
vt 1.104180 0.696459
vt 1.105140 0.696459
vt 1.104180 0.711040
vt 0.844781 0.711040
vt 0.845732 0.696459
vt 0.845732 0.711040
vt 0.844781 0.696459
vt 0.527775 0.711040
vt 0.528727 0.696459
vt 0.528727 0.711040
vt 0.527775 0.696459
vt 0.539408 0.696459
vt 0.538456 0.711040
vt 0.538456 0.696459
vt 0.539408 0.711040
vt 0.188275 0.696459
vt 0.174770 0.696459
vt 0.173818 0.711040
vt 0.173818 0.696459
vt 0.174770 0.711040
vt 0.525937 0.696459
vt 0.524985 0.711040
vt 0.524985 0.696459
vt 0.525937 0.711040
vt 0.841294 0.696459
vt 0.840342 0.711040
vt 0.840342 0.696459
vt 0.841294 0.711040
vt 1.098400 0.696459
vt 1.099350 0.711040
vt 1.098400 0.711040
vt 1.099350 0.696459
vt 1.281570 0.696459
vt 1.282520 0.711040
vt 1.281570 0.711040
vt 1.282520 0.696459
vt -0.014581 0.864146
vt -0.014581 0.696459
vt 0.656168 0.007291
vt 1.531060 0.000000
vt 1.531060 0.007291
vt 0.656168 0.000000
vt -1.531060 0.007291
vt -0.656168 0.000000
vt -0.656168 0.007291
vt -1.531060 0.000000
vt 82.283501 0.000000
vt 35.826801 0.393701
vt 35.826801 0.000000
vt 82.283501 0.393701
vt 0.000000 33.070900
vt -0.393701 61.377998
vt -0.393701 33.070900
vt 0.000000 61.377998
vt 0.393701 33.070900
vt 0.393701 61.377998
vt 82.283501 61.377998
vt 35.826801 33.070900
vt 82.283501 33.070900
vt 35.826801 61.377998
vt -82.283501 0.393701
vt -35.826801 0.000000
vt -35.826801 0.393701
vt -82.283501 0.000000
vn -0.000000 0.000000 -1.000000
vn -1.000000 -0.000000 0.000000
vn 0.000000 -0.000000 1.000000
vn 1.000000 -0.000000 0.000000
vn 0.000000 1.000000 0.000000
vn 0.000000 -1.000000 0.000000
vn 0.000000 -1.000000 -0.000100
vn 0.000000 -1.000000 0.000100
vn 0.000000 -1.000000 0.000500
vn 0.000000 -1.000000 0.000200
vn -0.357000 0.000000 -0.934100
vn -0.666900 0.000000 -0.745200
vn 0.398600 -0.000000 -0.917100
vn 0.731200 0.000000 -0.682200
vn -0.018800 -0.000000 0.999800
vn 0.000000 -1.000000 0.001200
vn 0.000000 -1.000000 -0.001000
vn -0.000200 -0.000000 -1.000000
vn -0.258800 0.000000 -0.965900
vn -0.965900 -0.000000 0.259100
vn -0.865800 0.000000 0.500300
vn -0.707200 0.000000 0.707000
vn -0.500200 0.000000 0.865900
vn -0.258800 0.000000 0.965900
vn 0.000200 -0.000000 1.000000
vn -0.000200 -0.000000 1.000000
vn 0.258600 0.000000 -0.966000
vn 0.500200 0.000000 -0.865900
vn 0.707300 -0.000000 -0.706900
vn 0.000000 -1.000000 -0.001500
vn 0.991500 -0.000000 -0.130400
vn 0.258800 0.000000 0.965900
vn 0.991400 -0.000000 -0.130800
vn 0.965800 0.000000 -0.259300
vn 0.258600 -0.000000 0.966000
vn 0.500000 0.000000 0.866000
vn 0.707300 0.000000 0.706900
vn 0.865800 0.000000 0.500400
vn 0.923900 0.000000 0.382700
vn 0.923900 -0.000000 0.382600
vn -0.000000 -1.000000 -0.000800
vn 0.000000 -1.000000 0.000700
vn 0.500400 0.000000 -0.865800
vn 0.707300 0.000000 -0.707000
vn 0.865800 0.000000 -0.500300
vn 0.965900 -0.000000 -0.259100
vn 0.965900 -0.000000 0.259100
vn 0.865800 0.000000 0.500300
vn 0.707300 0.000000 0.707000
vn 0.500200 0.000000 0.865900
vn -0.499400 0.000000 0.866400
vn -0.707400 -0.000000 0.706800
vn -0.866400 0.000000 0.499400
vn 0.865800 0.000000 -0.500400
vn 0.000000 -1.000000 -0.000300
vn -0.499600 -0.000000 -0.866200
vn -0.707400 0.000000 -0.706800
vn -0.866400 -0.000000 -0.499400
vn -0.866200 0.000000 -0.499700
vn -0.923800 0.000000 -0.382900
vn 0.965900 -0.000000 -0.258900
vn -0.965900 -0.000000 -0.259100
vn -0.865800 -0.000000 -0.500300
vn -0.707200 -0.000000 -0.707000
vn -0.500400 0.000000 -0.865800
usemtl Metal_Aluminum_Anodized
s 1
f 1/1/1 2/2/1 3/3/1
f 2/2/1 1/1/1 4/4/1
f 5/5/2 4/6/2 1/7/2
f 4/6/2 5/5/2 6/8/2
f 5/9/3 7/10/3 6/11/3
f 7/10/3 5/9/3 8/12/3
f 9/13/3 8/12/3 5/9/3
f 8/12/3 9/13/3 10/14/3
f 3/7/4 10/15/4 9/16/4
f 10/15/4 3/7/4 11/6/4
f 3/3/1 12/17/1 11/18/1
f 12/17/1 3/3/1 2/2/1
f 2/2/1 4/4/1 13/19/1
f 13/19/1 4/4/1 14/20/1
f 11/18/1 14/20/1 4/4/1
f 11/18/1 12/17/1 14/20/1
f 8/12/3 10/14/3 15/21/3
f 15/21/3 10/14/3 16/22/3
f 6/11/3 16/22/3 10/14/3
f 6/11/3 7/10/3 16/22/3
f 14/20/1 17/23/1 13/19/1
f 14/20/1 18/24/1 17/23/1
f 12/17/1 18/24/1 14/20/1
f 18/24/1 12/17/1 19/25/1
f 2/2/1 19/25/1 12/17/1
f 19/25/1 2/2/1 13/19/1
f 19/25/1 13/19/1 20/26/1
f 20/26/1 13/19/1 17/23/1
f 17/27/5 21/28/5 20/29/5
f 21/28/5 17/27/5 22/30/5
f 17/31/4 23/32/4 22/33/4
f 23/32/4 17/31/4 18/34/4
f 18/24/1 20/26/1 17/23/1
f 20/26/1 18/24/1 19/25/1
f 24/35/6 18/36/6 19/37/6
f 18/36/6 24/35/6 23/38/6
f 25/39/6 23/38/6 24/35/6
f 23/38/6 25/39/6 26/40/6
f 26/40/6 25/39/6 27/41/7
f 28/42/3 27/43/3 25/44/3
f 27/43/3 28/42/3 29/45/3
f 28/39/6 30/46/6 29/41/6
f 30/46/6 28/39/6 31/35/6
f 28/47/2 24/48/2 31/49/2
f 24/48/2 28/47/2 25/50/2
f 24/51/1 30/52/1 31/53/1
f 30/52/1 24/51/1 32/54/1
f 24/35/6 19/37/6 32/46/6
f 32/46/6 19/37/6 33/55/7
f 33/55/7 19/37/6 34/56/6
f 34/56/6 19/37/6 35/57/6
f 35/57/6 19/37/6 36/58/6
f 36/58/6 19/37/6 37/59/6
f 37/59/6 19/37/6 38/60/6
f 38/60/6 19/37/6 39/61/8
f 39/61/8 19/37/6 40/62/6
f 40/62/6 19/37/6 41/63/9
f 41/63/9 19/37/6 42/64/6
f 42/64/6 19/37/6 43/65/10
f 43/65/10 19/37/6 44/66/7
f 44/66/7 19/37/6 45/67/6
f 45/67/6 19/37/6 46/68/6
f 46/68/6 19/37/6 47/69/6
f 47/69/6 19/37/6 48/70/6
f 48/70/6 19/37/6 49/71/6
f 26/40/6 49/71/6 19/37/6
f 26/40/6 50/72/6 49/71/6
f 26/40/6 51/73/6 50/72/6
f 26/40/6 52/74/6 51/73/6
f 26/40/6 53/75/6 52/74/6
f 26/40/6 54/76/8 53/75/6
f 26/40/6 55/77/7 54/76/8
f 26/40/6 56/78/6 55/77/7
f 26/40/6 57/79/8 56/78/6
f 26/40/6 58/80/6 57/79/8
f 26/40/6 39/61/8 58/80/6
f 26/40/6 59/81/6 39/61/8
f 26/40/6 60/82/7 59/81/6
f 26/40/6 61/83/6 60/82/7
f 26/40/6 62/84/7 61/83/6
f 26/40/6 63/85/8 62/84/7
f 26/40/6 27/41/7 63/85/8
f 63/85/8 27/41/7 33/55/7
f 32/46/6 33/55/7 27/41/7
f 27/86/4 30/87/4 32/88/4
f 30/87/4 27/86/4 29/89/4
f 33/90/2 64/91/2 63/92/2
f 64/91/2 33/90/2 65/93/2
f 33/94/1 66/95/1 65/96/1
f 66/95/1 33/94/1 34/97/1
f 62/98/4 66/99/4 34/100/4
f 66/99/4 62/98/4 67/101/4
f 62/43/3 64/42/3 67/45/3
f 64/42/3 62/43/3 63/44/3
f 64/39/6 66/46/6 67/41/6
f 66/46/6 64/39/6 65/35/6
f 34/56/6 35/57/6 62/84/7
f 61/83/6 62/84/7 35/57/6
f 35/102/2 68/103/2 61/104/2
f 68/103/2 35/102/2 69/105/2
f 35/106/1 70/107/1 69/108/1
f 70/107/1 35/106/1 36/109/1
f 60/110/4 70/111/4 36/112/4
f 70/111/4 60/110/4 71/113/4
f 60/43/3 68/42/3 71/45/3
f 68/42/3 60/43/3 61/44/3
f 68/39/6 70/46/6 71/41/6
f 70/46/6 68/39/6 69/35/6
f 36/58/6 37/59/6 60/82/7
f 60/82/7 37/59/6 59/81/6
f 72/114/11 59/115/12 37/116/11
f 59/115/12 72/114/11 73/117/12
f 72/59/6 74/61/6 73/81/6
f 74/61/6 72/59/6 75/60/6
f 37/106/11 75/107/13 72/108/11
f 75/107/13 37/106/11 38/109/13
f 39/118/14 75/119/13 38/120/13
f 75/119/13 39/118/14 74/121/14
f 39/122/15 73/123/15 74/124/15
f 73/123/15 39/122/15 59/125/15
f 58/80/6 39/61/8 76/126/16
f 76/126/16 39/61/8 77/127/7
f 77/127/7 39/61/8 78/128/6
f 78/128/6 39/61/8 79/129/6
f 79/129/6 39/61/8 80/130/6
f 80/130/6 39/61/8 81/131/6
f 39/61/8 82/132/6 81/131/6
f 39/61/8 83/133/6 82/132/6
f 39/61/8 84/134/6 83/133/6
f 39/61/8 85/135/8 84/134/6
f 39/61/8 86/136/17 85/135/8
f 39/61/8 40/62/6 86/136/17
f 87/137/18 86/138/19 40/139/18
f 86/138/19 87/137/18 88/140/19
f 89/126/6 88/136/6 87/62/6
f 90/127/6 88/136/6 89/126/6
f 90/127/6 91/135/6 88/136/6
f 92/128/6 91/135/6 90/127/6
f 92/128/6 93/134/6 91/135/6
f 94/129/6 93/134/6 92/128/6
f 94/129/6 95/133/6 93/134/6
f 96/130/6 95/133/6 94/129/6
f 96/130/6 97/132/6 95/133/6
f 97/132/6 96/130/6 98/131/6
f 96/141/20 81/142/2 98/143/2
f 81/142/2 96/141/20 80/144/20
f 94/145/21 80/146/20 96/147/20
f 80/146/20 94/145/21 79/148/21
f 92/149/22 79/150/21 94/151/21
f 79/150/21 92/149/22 78/152/22
f 92/153/22 77/154/23 78/155/22
f 77/154/23 92/153/22 90/156/23
f 90/157/23 76/158/24 77/159/23
f 76/158/24 90/157/23 89/160/24
f 89/161/24 58/162/25 76/163/24
f 58/162/25 89/161/24 99/164/26
f 89/126/6 87/62/6 99/80/6
f 99/80/6 87/62/6 100/63/6
f 40/165/18 100/166/27 87/167/18
f 100/166/27 40/165/18 41/168/27
f 41/169/27 101/170/28 100/171/27
f 101/170/28 41/169/27 42/172/28
f 42/173/28 102/174/29 101/175/28
f 102/174/29 42/173/28 103/176/29
f 42/64/6 104/177/30 103/178/6
f 42/64/6 43/65/10 104/177/30
f 105/179/18 104/180/19 43/181/18
f 104/180/19 105/179/18 106/182/19
f 107/183/6 106/177/6 105/65/6
f 108/184/6 106/177/6 107/183/6
f 108/184/6 109/185/6 106/177/6
f 110/186/6 109/185/6 108/184/6
f 110/186/6 111/187/6 109/185/6
f 112/188/6 111/187/6 110/186/6
f 112/188/6 113/189/6 111/187/6
f 114/190/6 113/189/6 112/188/6
f 114/190/6 115/191/6 113/189/6
f 115/191/6 114/190/6 116/192/6
f 116/193/31 117/194/32 114/195/32
f 117/194/32 116/193/33 118/196/33
f 118/196/33 116/193/33 119/197/34
f 120/198/6 119/199/6 116/192/6
f 121/200/6 119/199/6 120/198/6
f 121/200/6 122/201/6 119/199/6
f 123/202/6 122/201/6 121/200/6
f 123/202/6 102/178/6 122/201/6
f 124/78/6 102/178/6 123/202/6
f 124/78/6 101/64/6 102/178/6
f 125/79/6 101/64/6 124/78/6
f 125/79/6 100/63/6 101/64/6
f 99/80/6 100/63/6 125/79/6
f 57/203/35 99/204/26 125/205/35
f 99/204/26 57/203/35 58/206/25
f 125/207/35 56/208/36 57/209/35
f 56/208/36 125/207/35 124/210/36
f 124/211/36 126/212/37 56/213/36
f 126/212/37 124/211/36 123/214/37
f 121/215/38 126/216/37 123/217/37
f 126/216/37 121/215/38 127/218/38
f 120/219/39 127/220/38 121/221/38
f 127/220/38 120/219/39 128/222/40
f 129/188/6 127/200/6 128/198/6
f 130/186/41 127/200/6 129/188/6
f 131/184/9 127/200/6 130/186/41
f 131/184/9 126/202/6 127/200/6
f 132/183/42 126/202/6 131/184/9
f 132/183/42 56/78/6 126/202/6
f 55/77/7 56/78/6 132/183/42
f 107/223/24 55/224/25 132/225/24
f 55/224/25 107/223/24 133/226/26
f 107/183/6 105/65/6 133/77/6
f 133/77/6 105/65/6 134/66/6
f 43/227/18 134/228/27 105/229/18
f 134/228/27 43/227/18 44/230/27
f 44/231/27 135/232/43 134/233/27
f 135/232/43 44/231/27 45/234/43
f 45/235/43 136/236/44 135/237/43
f 136/236/44 45/235/43 46/238/44
f 47/239/45 136/240/44 46/241/44
f 136/240/44 47/239/45 137/242/45
f 48/243/46 137/244/45 47/245/45
f 137/244/45 48/243/46 138/246/46
f 49/194/4 138/193/46 48/196/46
f 138/193/46 49/194/4 139/195/4
f 50/247/47 139/248/4 49/249/4
f 139/248/4 50/247/47 140/250/47
f 51/251/48 140/252/47 50/253/47
f 140/252/47 51/251/48 141/254/48
f 52/255/49 141/256/48 51/257/48
f 141/256/48 52/255/49 142/258/49
f 52/259/49 143/260/50 142/261/49
f 143/260/50 52/259/49 53/262/50
f 53/263/50 144/264/35 143/265/50
f 144/264/35 53/263/50 54/266/35
f 54/267/35 133/268/26 144/269/35
f 133/268/26 54/267/35 55/270/25
f 133/77/6 134/66/6 144/76/6
f 144/76/6 134/66/6 135/67/6
f 144/76/6 135/67/6 143/75/6
f 143/75/6 135/67/6 136/68/6
f 143/75/6 136/68/6 142/74/6
f 142/74/6 136/68/6 137/69/6
f 142/74/6 137/69/6 141/73/6
f 141/73/6 137/69/6 138/70/6
f 141/73/6 138/70/6 140/72/6
f 140/72/6 138/70/6 139/71/6
f 132/271/24 108/272/51 107/273/24
f 108/272/51 132/271/24 131/274/51
f 131/275/51 110/276/52 108/277/51
f 110/276/52 131/275/51 130/278/52
f 129/279/53 110/280/52 130/281/52
f 110/280/52 129/279/53 112/282/53
f 117/283/32 112/284/53 129/285/53
f 112/284/53 117/283/32 114/286/32
f 129/188/6 128/198/6 117/190/6
f 117/190/6 128/198/6 118/192/6
f 102/287/29 145/288/54 122/289/54
f 145/288/54 102/287/29 103/290/29
f 103/178/6 146/185/55 145/201/6
f 103/178/6 104/177/30 146/185/55
f 106/291/19 146/292/56 104/293/19
f 146/292/56 106/291/19 109/294/56
f 109/295/56 147/296/57 146/297/56
f 147/296/57 109/295/56 111/298/57
f 113/299/58 147/300/57 111/301/57
f 147/300/57 113/299/58 148/302/59
f 115/303/60 148/304/59 113/305/58
f 148/304/59 115/303/60 149/306/60
f 150/199/6 148/189/6 149/191/6
f 145/201/6 148/189/6 150/199/6
f 145/201/6 147/187/6 148/189/6
f 145/201/6 146/185/55 147/187/6
f 150/307/61 122/308/54 145/309/54
f 122/308/54 150/307/61 119/310/34
f 118/196/33 119/197/34 150/311/61
f 150/199/6 149/191/6 118/192/6
f 82/312/62 98/313/2 81/314/2
f 98/313/2 82/312/62 97/315/62
f 83/316/63 97/317/62 82/318/62
f 97/317/62 83/316/63 95/319/63
f 84/320/64 95/321/63 83/322/63
f 95/321/63 84/320/64 93/323/64
f 84/324/64 91/325/65 93/326/64
f 91/325/65 84/324/64 85/327/65
f 85/328/65 88/329/19 91/330/65
f 88/329/19 85/328/65 86/331/19
f 19/34/2 21/332/2 26/333/2
f 21/332/2 19/34/2 20/31/2
f 21/26/1 23/24/1 26/25/1
f 23/24/1 21/26/1 22/23/1
f 10/334/5 4/335/5 6/336/5
f 4/335/5 10/334/5 11/337/5
f 5/338/6 3/339/6 9/340/6
f 3/339/6 5/338/6 1/341/6
usemtl FrontColor
f 2/342/5 8/343/5 12/344/5
f 8/343/5 2/342/5 7/345/5
f 2/346/4 16/347/4 7/348/4
f 16/347/4 2/346/4 13/349/4
f 8/350/2 14/349/2 12/346/2
f 14/349/2 8/350/2 15/351/2
f 16/352/1 8/353/1 7/354/1
f 8/353/1 16/352/1 15/355/1
f 16/356/6 14/357/6 15/358/6
f 14/357/6 16/356/6 13/359/6
o Mesh2_Model
v 0.485022 0.297974 0.023331
v -0.482828 0.297974 0.023331
v 0.485022 -0.291756 0.023330
v -0.482828 -0.291756 0.023331
vt 0.000000 0.000000
vt 1.000000 0.000000
vt 0.000000 1.000000
vt 1.000000 1.000000
vn 0.000000 -0.000000 1.000000
usemtl hubsmart
s 1
f 151/360/66 152/361/66 153/362/66
f 154/363/66 153/362/66 152/361/66
