# Blender v2.76 (sub 0) OBJ File: ''
# www.blender.org
mtllib 2.mtl
o Mesh2_Art1_Group_2_1_Model
v 1.208371 -0.802082 0.002540
v -1.208370 -0.802083 -0.002540
v 1.208371 -0.802082 -0.002540
v -1.208370 -0.802083 0.002540
v 1.208370 0.802083 -0.002540
v 1.208370 0.802083 0.002540
v -1.208371 0.802082 -0.002540
v -1.208371 0.802082 0.002540
v -1.218787 0.812502 0.002032
v -1.218787 -0.812500 0.007112
v -1.218787 -0.812500 0.002032
v -1.218787 0.812502 0.007112
v 1.218790 0.812502 0.007112
v 1.218790 0.812502 0.002032
v -1.208372 0.802082 0.002032
v -1.208371 -0.802083 0.002032
v 1.218790 -0.812500 0.002032
v 1.218790 -0.812500 0.007112
v 1.239621 -0.833333 0.007112
v -1.239622 -0.833333 0.007112
v -1.239623 0.833332 0.007112
v 1.239620 0.833332 0.007112
v 1.208369 0.802082 0.002032
v 1.208370 -0.802083 0.002032
v 1.239620 0.833332 -0.018288
v 1.239621 -0.833333 -0.018288
v -1.239622 -0.833333 -0.018288
v -1.239623 0.833332 -0.018288
vt -0.500000 58.000000
vt 0.000000 0.000000
vt 0.000000 58.000000
vt -0.500000 0.000000
vt 0.000000 38.500000
vt -0.500000 38.500000
vt -58.000000 38.500000
vt -58.000000 0.000000
vt 0.500000 38.500000
vt 0.500000 0.000000
vt 0.500000 58.000000
vt 0.966667 0.000000
vt 0.000000 0.915129
vt 0.966667 0.915129
vt -2.000000 39.500000
vt -2.500000 0.500000
vt -2.000000 0.500000
vt -2.500000 39.500000
vt -2.500000 59.000000
vt -2.000000 59.000000
vt 0.500000 39.500000
vt 0.750000 39.250000
vt 59.000000 39.500000
vt 0.750000 0.750000
vt 0.500000 0.500000
vt 59.000000 0.500000
vt 2.500000 0.500000
vt 2.000000 59.000000
vt 2.000000 0.500000
vt 2.500000 59.000000
vt 59.500000 0.000000
vt 0.000000 40.000000
vt 59.500000 40.000000
vt 2.500000 39.500000
vt 2.000000 39.500000
vt 58.750000 39.250000
vt 58.750000 0.750000
vt -2.500000 0.000000
vt -2.500000 40.000000
vt -2.500000 59.500000
vt 0.000000 59.500000
vt 2.500000 40.000000
vt 2.500000 0.000000
vt 2.500000 59.500000
vt -59.500000 40.000000
vt -59.500000 0.000000
vn 0.000000 -1.000000 0.000000
vn 1.000000 0.000000 0.000000
vn 0.000000 0.000000 -1.000000
vn -1.000000 -0.000000 0.000000
vn -0.000000 1.000000 0.000000
vn 0.000000 -0.000000 1.000000
usemtl FrontColor
s 1
f 1/1/1 2/2/1 3/3/1
f 2/2/1 1/1/1 4/4/1
f 1/4/2 5/5/2 6/6/2
f 5/5/2 1/4/2 3/2/2
f 2/2/3 5/7/3 3/8/3
f 5/7/3 2/2/3 7/5/3
f 2/2/4 8/9/4 7/5/4
f 8/9/4 2/2/4 4/10/4
f 8/10/5 5/3/5 7/2/5
f 5/3/5 8/10/5 6/11/5
usemtl Art
f 1/12/6 8/13/6 4/2/6
f 8/13/6 1/12/6 6/14/6
usemtl Color_B24
f 9/15/2 10/16/2 11/17/2
f 10/16/2 9/15/2 12/18/2
f 9/17/1 13/19/1 12/16/1
f 13/19/1 9/17/1 14/20/1
f 9/21/6 15/22/6 14/23/6
f 15/22/6 9/21/6 16/24/6
f 11/25/6 16/24/6 9/21/6
f 16/24/6 11/25/6 17/26/6
f 10/27/5 17/28/5 11/29/5
f 17/28/5 10/27/5 18/30/5
f 10/25/6 19/31/6 18/26/6
f 10/25/6 20/2/6 19/31/6
f 20/2/6 10/25/6 21/32/6
f 12/21/6 21/32/6 10/25/6
f 21/32/6 12/21/6 22/33/6
f 22/33/6 12/21/6 13/23/6
f 22/33/6 13/23/6 19/31/6
f 18/26/6 19/31/6 13/23/6
f 13/34/4 17/29/4 18/27/4
f 17/29/4 13/34/4 14/35/4
f 14/23/6 23/36/6 17/26/6
f 14/23/6 15/22/6 23/36/6
f 15/22/6 24/37/6 23/36/6
f 24/37/6 15/22/6 16/24/6
f 16/24/6 17/26/6 24/37/6
f 24/37/6 17/26/6 23/36/6
f 19/38/2 25/32/2 22/39/2
f 25/32/2 19/38/2 26/2/2
f 19/40/1 27/2/1 26/41/1
f 27/2/1 19/40/1 20/38/1
f 21/42/4 27/2/4 20/43/4
f 27/2/4 21/42/4 28/32/4
f 21/43/5 25/41/5 28/2/5
f 25/41/5 21/43/5 22/44/5
f 25/45/3 27/2/3 28/32/3
f 27/2/3 25/45/3 26/46/3
