# Blender v2.76 (sub 0) OBJ File: ''
# www.blender.org
mtllib 5.mtl
o Cube_Cube.001
v -0.902501 1.130905 0.043497
v -0.902501 1.130905 -0.043496
v -0.902501 -1.130905 -0.043497
v -0.902501 -1.130905 0.043496
v -0.815509 1.130905 -0.043496
v -0.815509 -1.130905 -0.043497
v -0.815509 1.130905 0.043497
v -0.815509 -1.130905 0.043496
vt 0.000000 0.000000
vt 1.000000 0.000000
vt 1.000000 1.000000
vt 0.000000 1.000000
vn -1.000000 0.000000 0.000000
vn 0.000000 0.000000 -1.000000
vn 1.000000 0.000000 0.000000
vn 0.000000 -0.000000 1.000000
vn 0.000000 -1.000000 0.000000
vn 0.000000 1.000000 0.000000
usemtl Material.008
s 1
f 1/1/1 2/2/1 3/3/1 4/4/1
f 2/1/2 5/2/2 6/3/2 3/4/2
f 5/1/3 7/2/3 8/3/3 6/4/3
f 7/1/4 1/2/4 4/3/4 8/4/4
f 4/1/5 3/2/5 6/3/5 8/4/5
f 7/1/6 5/2/6 2/3/6 1/4/6
o Cube.002_Cube.003
v -0.907457 1.185218 0.043497
v -0.907457 1.185218 -0.043496
v -0.907457 1.098225 -0.043496
v -0.907457 1.098225 0.043497
v 0.901992 1.185218 -0.043496
v 0.901992 1.098225 -0.043496
v 0.901992 1.185218 0.043497
v 0.901992 1.098225 0.043497
vt 0.000000 0.000000
vt 1.000000 0.000000
vt 1.000000 1.000000
vt 0.000000 1.000000
vn -1.000000 0.000000 0.000000
vn 0.000000 0.000000 -1.000000
vn 1.000000 0.000000 0.000000
vn 0.000000 -0.000000 1.000000
vn 0.000000 -1.000000 0.000000
vn 0.000000 1.000000 0.000000
usemtl Material.005
s 1
f 9/5/7 10/6/7 11/7/7 12/8/7
f 10/5/8 13/6/8 14/7/8 11/8/8
f 13/5/9 15/6/9 16/7/9 14/8/9
f 15/5/10 9/6/10 12/7/10 16/8/10
f 12/5/11 11/6/11 14/7/11 16/8/11
f 15/5/12 13/6/12 10/7/12 9/8/12
o Cube.001_Cube.002
v 0.811215 1.130905 0.043497
v 0.811215 1.130905 -0.043496
v 0.811215 -1.130905 -0.043497
v 0.811215 -1.130905 0.043496
v 0.898207 1.130905 -0.043496
v 0.898207 -1.130905 -0.043497
v 0.898207 1.130905 0.043497
v 0.898207 -1.130905 0.043496
vt 0.000000 0.000000
vt 1.000000 0.000000
vt 1.000000 1.000000
vt 0.000000 1.000000
vn -1.000000 0.000000 0.000000
vn 0.000000 0.000000 -1.000000
vn 1.000000 0.000000 0.000000
vn 0.000000 -0.000000 1.000000
vn 0.000000 -1.000000 0.000000
vn 0.000000 1.000000 0.000000
usemtl Material.006
s 1
f 17/9/13 18/10/13 19/11/13 20/12/13
f 18/9/14 21/10/14 22/11/14 19/12/14
f 21/9/15 23/10/15 24/11/15 22/12/15
f 23/9/16 17/10/16 20/11/16 24/12/16
f 20/9/17 19/10/17 22/11/17 24/12/17
f 23/9/18 21/10/18 18/11/18 17/12/18
o cyndi
v 0.859810 1.141637 0.000000
v -0.859810 1.141637 0.000000
v -0.859810 -1.141637 -0.000000
v 0.859810 -1.141637 -0.000000
vt 0.000000 0.000000
vt 1.000000 0.000000
vt 1.000000 1.000000
vt 0.000000 1.000000
vn 0.000000 -0.000000 1.000000
usemtl cyndi
s 1
f 25/13/19 26/14/19 27/15/19 28/16/19
o Cube.003_Cube.004
v -0.907457 -1.095784 0.043496
v -0.907457 -1.095784 -0.043497
v -0.907457 -1.182777 -0.043497
v -0.907457 -1.182777 0.043496
v 0.901992 -1.095784 -0.043497
v 0.901992 -1.182777 -0.043497
v 0.901992 -1.095784 0.043496
v 0.901992 -1.182777 0.043496
vt 0.000000 0.000000
vt 1.000000 0.000000
vt 1.000000 1.000000
vt 0.000000 1.000000
vn -1.000000 0.000000 0.000000
vn 0.000000 0.000000 -1.000000
vn 1.000000 0.000000 0.000000
vn 0.000000 -0.000000 1.000000
vn 0.000000 -1.000000 0.000000
vn 0.000000 1.000000 0.000000
usemtl Material.007
s 1
f 29/17/20 30/18/20 31/19/20 32/20/20
f 30/17/21 33/18/21 34/19/21 31/20/21
f 33/17/22 35/18/22 36/19/22 34/20/22
f 35/17/23 29/18/23 32/19/23 36/20/23
f 32/17/24 31/18/24 34/19/24 36/20/24
f 35/17/25 33/18/25 30/19/25 29/20/25
